<svg version="1.1" id="Layer_1" xmlns="http://www.w3.org/2000/svg" xmlns:xlink="http://www.w3.org/1999/xlink" x="0px" y="0px"
	 width="713.911px" height="303.962px" viewBox="0 0 713.911 303.962" enable-background="new 0 0 713.911 303.962"
	 xml:space="preserve">
		<path fill-rule="evenodd" clip-rule="evenodd" fill="#00A8E3" d="M282.92,90.988c-11.793,0-22.944-0.075-34.093,0.062
			c-2.372,0.028-3.573-1.113-4.873-2.746c-24.16-30.353-55.693-44.441-94.361-42.228c-47.288,2.708-89.685,41.743-97.713,88.612
			c-10.34,60.359,30.604,117.542,90.962,125.761c43.567,5.933,78.585-10.311,104.333-45.95c2.578-3.569,5.024-4.776,9.273-4.772
			c134.958,0.108,269.917,0.266,404.875-0.171c14.244-0.046,27.033,14.08,24.636,32.554c-0.201,1.547-1.021,1.898-2.354,1.859
			c-1.332-0.038-2.665,0.001-3.998,0.001c-136.459,0.001-272.917,0.014-409.376-0.071c-3.609-0.002-6.076,0.953-8.586,3.666
			c-28.461,30.766-63.766,46.132-105.652,45.939c-67.961-0.313-127.79-53.455-136.131-120.661
			c-9.291-74.859,37.545-140.53,111.464-156.29C189.964,4.05,254.364,34.667,281.617,88.005
			C281.985,88.726,282.27,89.49,282.92,90.988z"/>
		<path fill-rule="evenodd" clip-rule="evenodd" fill="#29B252" d="M105.78,140.498c-1.271,2.161-0.76,4.01-0.766,5.757
			c-0.048,15.487-0.123,30.976,0.047,46.461c0.036,3.296-0.906,4.268-4.179,4.171c-7.654-0.227-15.32-0.158-22.978-0.025
			c-2.575,0.045-3.513-0.783-3.508-3.399c0.06-29.642,0.059-59.284,0.001-88.926c-0.005-2.579,0.859-3.471,3.472-3.435
			c9.157,0.127,18.32-0.1,27.476,0.098c8.038,0.173,14.18,5.287,16.568,13.478c3.766,12.919,7.414,25.872,11.188,38.788
			c0.383,1.313,0.182,3.49,1.999,3.57c1.94,0.085,1.749-2.079,2.138-3.418c3.716-12.763,7.344-25.551,11.098-38.303
			c2.889-9.814,8.802-14.148,19.044-14.163c8.327-0.011,16.655,0.105,24.979-0.061c2.825-0.057,3.682,0.789,3.672,3.644
			c-0.094,29.476-0.09,58.952-0.004,88.427c0.008,2.766-0.678,3.788-3.602,3.717c-7.655-0.189-15.326-0.26-22.976,0.022
			c-3.57,0.133-4.097-1.363-4.078-4.382c0.101-15.82,0.068-31.641,0.007-47.46c-0.005-1.343,0.846-3.524-0.976-3.871
			c-2.099-0.399-1.71,2.119-2.078,3.291c-4.97,15.852-9.895,31.721-14.564,47.665c-1.075,3.669-2.721,5.129-6.587,4.739
			c-5.588-0.563-12.618,2.18-16.451-1.038c-3.559-2.989-3.849-9.921-5.476-15.147c-3.749-12.047-7.447-24.109-11.13-36.176
			C107.689,143.113,107.549,141.602,105.78,140.498z"/>
		<path fill-rule="evenodd" clip-rule="evenodd" fill="#29B252" d="M347.892,196.814c-11.429,0-21.748-0.073-32.063,0.055
			c-2.386,0.029-3.558-0.928-4.58-2.929c-3.93-7.694-8.187-15.228-11.944-23.003c-1.591-3.293-3.459-4.596-7.194-4.493
			c-9.302,0.255-9.307,0.061-9.307,9.532c0,5.828-0.112,11.658,0.048,17.48c0.073,2.659-0.891,3.444-3.465,3.403
			c-7.99-0.128-15.984-0.144-23.974,0.006c-2.746,0.052-3.337-1.063-3.324-3.541c0.081-15.15,0.09-30.302-0.007-45.452
			c-0.017-2.595,0.828-3.49,3.419-3.485c28.971,0.059,57.941,0.059,86.911-0.001c2.972-0.007,3.432,0.876,2.151,3.461
			c-3.287,6.64-8.015,11.905-14.758,14.986c-3.05,1.394-2.992,2.48-1.255,5.005C334.932,177.126,341.082,186.569,347.892,196.814z"
			/>
		<path fill-rule="evenodd" clip-rule="evenodd" fill="#00A8E3" d="M284.296,101.146c10.479,0,20.959-0.109,31.437,0.024
			c18.333,0.234,33.03,16.067,32.093,34.287c-0.18,3.492-0.947,5.333-5.203,5.208c-17.779-0.525-35.601,0.736-53.354-0.646
			c-19.178-1.495-36.068-16.495-40.773-35.195c-0.767-3.049-0.115-3.756,2.867-3.724
			C262.34,101.219,273.319,101.146,284.296,101.146z"/>
		<path fill-rule="evenodd" clip-rule="evenodd" fill="#29B252" d="M208.813,148.94c0-14.476,0.108-28.955-0.078-43.428
			c-0.045-3.501,0.965-4.561,4.462-4.442c7.479,0.255,14.977,0.22,22.459,0.011c3.145-0.088,3.934,1.048,3.925,4.012
			c-0.084,29.286-0.088,58.572,0.004,87.857c0.01,3.068-0.975,4.003-4.01,3.928c-7.65-0.191-15.312-0.21-22.959,0.007
			c-3.177,0.09-3.885-1.071-3.86-4.017C208.881,178.227,208.813,163.584,208.813,148.94z"/>
		<path fill-rule="evenodd" clip-rule="evenodd" fill="#01A9E3" d="M531.092,164.967c0-8.154,0.226-16.318-0.099-24.46
			c-0.155-3.9,1.16-4.708,4.787-4.61c9.313,0.255,18.639,0.193,27.956,0.023c3.058-0.056,4.341,0.512,4.29,4.001
			c-0.126,8.635,0.073,8.638-8.668,8.638c-2.329,0-4.659-0.001-6.99,0c-6.515,0.002-8.106,2.216-6.627,8.683
			c0.456,1.993,1.688,1.712,2.955,1.724c3.661,0.033,7.338,0.22,10.979-0.048c3.163-0.233,3.968,0.951,3.89,3.96
			c-0.271,10.5,1.021,8.447-8.232,8.675c-0.998,0.024-1.997,0.003-2.996,0.004c-6.557,0.003-7.995,2.047-6.597,8.714
			c0.487,2.321,1.998,1.829,3.371,1.842c5.325,0.052,10.658,0.202,15.974-0.045c3.115-0.146,3.923,0.886,3.924,3.932
			c0.002,8.555,0.148,8.555-8.235,8.554c-8.487,0-16.977-0.101-25.462,0.052c-3.127,0.057-4.406-0.726-4.303-4.178
			C531.264,181.947,531.092,173.454,531.092,164.967z"/>
		<path fill-rule="evenodd" clip-rule="evenodd" fill="#00A8E3" d="M385.404,135.983c5.313-1.69,7.257,1.606,8.947,7.036
			c4.885,15.679,10.306,31.198,15.844,46.662c1.555,4.341,0.34,5.359-3.698,4.882c-0.656-0.077-1.329-0.011-1.994-0.011
			c-7.59,0.002-7.795,0.056-9.774-7.484c-0.93-3.538-2.508-5.141-6.158-4.533c-0.809,0.135-1.659,0.02-2.491,0.02
			c-10.05,0-10.107-0.021-13.396,9.245c-0.722,2.035-1.716,2.727-3.907,2.817c-12.108,0.503-12.118,0.569-8.237-10.942
			c4.557-13.521,9.141-27.031,13.71-40.547C376.664,135.983,376.662,135.983,385.404,135.983z"/>
		<path fill-rule="evenodd" clip-rule="evenodd" fill="#00A8E3" d="M412.912,163.496c0.173-10.093,5.084-19.787,16.184-25.08
			c11.635-5.549,23.251-4.527,34.101,2.841c1.998,1.357,2.672,2.757,0.919,4.756c-0.324,0.37-0.535,0.84-0.795,1.266
			c-3.89,6.37-3.889,6.37-10.55,3.25c-7.121-3.335-15.411-2.452-20.11,2.145c-4.964,4.855-6.152,13.234-2.902,20.465
			c4.332,9.638,16.209,12.229,25.864,5.098c3.526-2.604,4.97-2.66,7.388,1.13c4.835,7.58,5.047,7.374-2.927,11.999
			C443.33,201.086,413.457,195.033,412.912,163.496z"/>
		<path fill-rule="evenodd" clip-rule="evenodd" fill="#00A8E3" d="M469.823,164.307c0.293-11.354,5.316-20.732,16.253-25.921
			c11.505-5.46,22.898-4.386,33.677,2.646c2.656,1.732,2.554,3.366,0.85,5.669c-1.576,2.13-2.362,5.316-4.393,6.513
			c-2.426,1.429-4.42-1.884-6.721-2.882c-7.134-3.094-15.325-2.16-20.055,2.556c-4.918,4.904-6.065,13.517-2.729,20.473
			c4.582,9.553,16.367,12.012,25.942,4.716c3.801-2.895,5.053-2.029,7.249,1.36c4.631,7.144,4.816,7.564-2.65,11.704
			c-11.01,6.106-22.396,6.281-33.346,0.186C473.788,185.698,469.893,176.231,469.823,164.307z"/>
		<path fill-rule="evenodd" clip-rule="evenodd" fill="#00A8E3" d="M671.467,134.143c7.993,0,15.986,0.076,23.978-0.045
			c2.476-0.037,3.442,0.544,3.544,3.287c0.394,10.602,0.508,10.597-10.104,10.597c-9.81,0-9.81,0-9.81,9.893
			c0,12.321-0.074,24.645,0.054,36.965c0.03,2.986-0.417,4.38-3.976,4.394c-12.077,0.046-12.077,0.205-12.077-11.771
			c0-11.656-0.179-23.316,0.101-34.966c0.094-3.879-1.135-4.868-4.768-4.584c-3.972,0.311-7.991-0.054-11.981,0.114
			c-2.465,0.104-3.014-0.894-3.14-3.187c-0.582-10.701-0.654-10.697,10.196-10.697C659.478,134.142,665.473,134.142,671.467,134.143
			z"/>
		<path fill-rule="evenodd" clip-rule="evenodd" fill="#29B252" d="M573.263,136.042c15.821,0,31.632-0.531,47.386,0.191
			c10.117,0.465,18.476,11.19,18.065,21.232c-0.083,2.036,0.228,4.504-3.229,4.38c-12.305-0.441-24.668,0.949-36.922-0.827
			C585.491,159.125,575.354,149.005,573.263,136.042z"/>
		<path fill-rule="evenodd" clip-rule="evenodd" fill="#00A8E3" d="M608.423,163.979c8.665,0,17.334,0.168,25.992-0.071
			c4.298-0.119,4.02,1.427,2.236,4.214c-3.72,5.814-9.085,8.631-15.908,8.683c-7.998,0.061-15.998,0.115-23.993-0.039
			c-2.797-0.054-3.882,0.762-3.718,3.663c0.217,3.819-0.019,7.663,0.075,11.492c0.052,2.119-0.757,2.777-2.894,2.952
			c-11.451,0.935-11.445,1.001-11.445-10.381c0-5.499,0.208-11.008-0.076-16.492c-0.176-3.404,1.082-4.16,4.239-4.088
			C591.425,164.108,599.926,163.979,608.423,163.979z"/>
		<path fill-rule="evenodd" clip-rule="evenodd" fill="#F7FBFD" d="M384.321,150.95c1.62,5.809,3.015,11.042,4.558,16.232
			c0.759,2.551,0.654,3.752-2.659,3.746c-7.555-0.012-7.537,0.188-5.447-7.127C381.944,159.697,383.047,155.575,384.321,150.95z"/>
</svg>
