<svg width="565" height="630" viewBox="0 0 565 630" fill="none" xmlns="http://www.w3.org/2000/svg">
<ellipse cx="282.5" cy="616" rx="282.5" ry="14" fill="#43408E" fill-opacity="0.2"/>
<rect x="34" y="507.923" width="105" height="108.394" fill="#CC5039"/>
<path fill-rule="evenodd" clip-rule="evenodd" d="M124.952 338.658C90.5977 337.573 73.5786 334.104 73.8943 328.249C74.8249 310.993 92.8933 323.414 86.9543 310.646C81.4529 298.818 91.1235 285.201 111.356 297.323C116.882 300.634 117.128 301.793 112.095 300.8L124.952 338.658Z" fill="#2A4862"/>
<path fill-rule="evenodd" clip-rule="evenodd" d="M125.037 338.658C90.683 337.574 73.6639 334.104 73.9796 328.25C74.9102 310.993 92.9786 323.415 87.0396 310.646C81.5382 298.818 91.2088 285.201 111.441 297.324C116.967 300.635 117.213 301.794 112.18 300.8L125.037 338.658Z" fill="black" fill-opacity="0.04"/>
<path fill-rule="evenodd" clip-rule="evenodd" d="M70.7615 370.003L94.675 315.79L105.077 322.63L97.0981 370.003L70.7615 370.003Z" fill="#FFBCBA"/>
<path fill-rule="evenodd" clip-rule="evenodd" d="M70.7615 370.003L94.675 315.79L105.077 322.63L97.0981 370.003L70.7615 370.003Z" fill="black" fill-opacity="0.04"/>
<path d="M107.98 331.285C113.509 330.109 116.362 321.488 114.351 312.028C112.341 302.568 106.228 295.852 100.698 297.028C95.1686 298.203 92.316 306.825 94.3267 316.284C96.3374 325.744 102.45 332.46 107.98 331.285Z" fill="#FFBCBA"/>
<path d="M109.6 325.164C110.277 325.211 111.694 324.849 111.81 323.206L107.687 322.92C107.58 324.441 108.924 325.117 109.6 325.164Z" fill="white"/>
<path fill-rule="evenodd" clip-rule="evenodd" d="M78.4725 282.523C80.5919 281.091 84.1955 282.726 86.5215 286.175C88.1078 288.527 88.6901 291.116 88.2277 292.978C90.4706 292.151 92.7132 291.771 94.9541 291.837C112.624 292.357 122.546 297.967 123.005 299.328C123.863 301.874 116.28 304.752 111.853 305.354C109.042 305.735 101.299 304.014 97.991 306.125C97.296 306.569 98.0588 317.945 100.279 340.254L59.473 327.758C67.55 311.233 75.6053 300.408 83.6388 295.284C81.9703 294.748 80.194 293.359 78.8465 291.36C76.5206 287.911 76.3531 283.954 78.4725 282.523Z" fill="#2A4862"/>
<g clip-path="url(#clip0)">
<path fill-rule="evenodd" clip-rule="evenodd" d="M99.4534 457.213C100.502 457.266 101.533 457.381 102.543 457.555C122.141 456.798 140.371 457.129 157.235 458.548C174.821 460.029 191.88 462.739 208.411 466.679L208.405 466.699C213.7 468.031 217.093 473.286 216.048 478.714C215.843 479.778 215.482 480.772 214.994 481.678L215.019 481.689L153.54 584.911C149.973 582.531 150.321 581.372 149.902 581.407C149.902 581.407 157.077 555.909 186.29 489.721L185.705 491.046L102.546 508.551L102.522 508.049C100.69 508.364 98.7953 508.483 96.8614 508.385C82.7304 507.67 71.8552 495.633 72.5705 481.503C73.287 467.372 85.3223 456.496 99.4534 457.213Z" fill="#FFBCBA"/>
<path fill-rule="evenodd" clip-rule="evenodd" d="M99.4534 457.213C100.502 457.266 101.533 457.381 102.543 457.555C122.141 456.798 140.371 457.129 157.235 458.548C174.821 460.029 191.88 462.739 208.411 466.679L208.405 466.699C213.7 468.031 217.093 473.286 216.048 478.714C215.843 479.778 215.482 480.772 214.994 481.678L215.019 481.689L153.54 584.911C149.973 582.531 150.321 581.372 149.902 581.407C149.902 581.407 157.077 555.909 186.29 489.721L185.705 491.046L102.546 508.551L102.522 508.049C100.69 508.364 98.7953 508.483 96.8614 508.385C82.7304 507.67 71.8552 495.633 72.5705 481.503C73.287 467.372 85.3223 456.496 99.4534 457.213Z" fill="black" fill-opacity="0.04"/>
<path fill-rule="evenodd" clip-rule="evenodd" d="M155.592 563.74L145.413 588.934L163.819 611.344C164.397 609.692 164.89 608.824 162.578 605.969C157.345 599.507 155.044 589.913 156.863 585.401C157.251 584.438 159.639 579.131 166.349 569.624L155.592 563.74Z" fill="#E9E9E9"/>
<path fill-rule="evenodd" clip-rule="evenodd" d="M144.283 590.425L162.251 612.614L163.813 611.349C163.813 611.349 157.623 603.679 145.846 589.16L144.283 590.425Z" fill="#43408E"/>
<path fill-rule="evenodd" clip-rule="evenodd" d="M96.7959 456.518C98.3688 456.46 99.9137 456.546 101.418 456.763L101.391 456.76C122.095 458.252 141.116 460.325 158.453 462.979C175.791 465.634 192.728 469.065 209.264 473.274L209.256 473.295C212.827 474.1 215.861 476.775 216.949 480.539C217.309 481.79 217.443 483.057 217.341 484.281L217.337 484.32C217.34 484.321 217.341 484.322 217.341 484.323C217.207 485.181 217.117 485.788 217.047 486.239C213.006 512.251 206.943 551.269 198.86 603.293C194.66 602.423 194.549 601.218 194.174 601.408C194.174 601.408 191.382 573.63 193.044 515.253C193.261 507.638 194.721 501.868 195.741 494.494L100.366 507.705L100.368 507.604C99.8088 507.661 99.2438 507.701 98.6738 507.722C84.5342 508.241 72.6514 497.198 72.1325 483.059C71.6146 468.92 82.6562 457.036 96.7959 456.518Z" fill="#FFBCBA"/>
<path fill-rule="evenodd" clip-rule="evenodd" d="M192.831 583.896V611.068L221.383 611.049C221.3 609.3 221.131 608.309 217.734 608.241C212.637 608.143 202.127 608.368 202.124 603.503C202.123 602.465 202.349 596.65 205.009 585.322L192.831 583.896Z" fill="#E9E9E9"/>
<path fill-rule="evenodd" clip-rule="evenodd" d="M192.831 613H221.383V610.99C221.383 610.99 211.526 610.974 192.831 610.99V613Z" fill="#43408E"/>
<path fill-rule="evenodd" clip-rule="evenodd" d="M57.411 446.612L102.176 443.406L102.176 457L130.8 455.044C135.62 458.994 138.873 463.348 140.558 468.107C145.401 481.78 144.893 494.014 139.036 504.81C118.999 507.356 103.939 508.658 93.8548 508.717C78.7291 508.804 66.4996 510.554 57.411 493.696C51.3519 482.458 51.3519 466.763 57.411 446.612Z" fill="#43408E"/>
</g>
<path fill-rule="evenodd" clip-rule="evenodd" d="M119.256 473.058L119.259 474.882L166.695 477.213V475.526L119.256 473.058Z" fill="#888889"/>
<path fill-rule="evenodd" clip-rule="evenodd" d="M166.695 475.525L119.256 473.058L155.72 457.04L191.757 458.92L166.695 475.525Z" fill="#C7C7C9"/>
<path fill-rule="evenodd" clip-rule="evenodd" d="M167.489 473.928L143.484 472.763L170.279 459.008L189.29 459.998L167.489 473.928Z" fill="#B4B4B5"/>
<path fill-rule="evenodd" clip-rule="evenodd" d="M166.692 475.525L166.695 477.212L191.759 460.384L191.757 458.92" fill="#939396"/>
<path fill-rule="evenodd" clip-rule="evenodd" d="M148.7 466.74L139.22 466.263L147.811 462.471L156.635 462.916L148.7 466.74Z" fill="#B4B4B5"/>
<path fill-rule="evenodd" clip-rule="evenodd" d="M118.734 463.141L127.388 468.275L136.263 468.065L142.072 470.728C142.529 470.953 142.411 471.227 142.33 471.236C140.627 471.406 139.275 471.156 137.538 470.354C135.732 471.121 134.171 470.283 134.794 472.074C134.868 472.285 137.928 473.291 141.079 473.508C141.527 473.541 143.693 473.852 143.963 473.874C145.517 473.996 145.763 473.931 146.86 473.826C147.197 473.795 147.626 473.914 148.15 474.184C148.225 474.223 148.289 474.276 148.335 474.335C148.46 474.5 148.41 474.676 148.226 474.728C147.811 474.846 147.356 474.955 146.857 475.057C146.129 475.205 143.839 475.346 141.87 475.25C140.535 475.185 138.88 475.121 138.688 475.174C138.393 475.257 141.046 475.604 143.148 476.069C145.251 476.535 146.597 475.759 148.507 475.51C148.77 475.475 149.257 475.564 149.969 475.773C150.007 475.785 150.343 475.979 150.235 476.168C150.126 476.356 147.95 477.156 146.693 477.432C144.596 477.891 144.155 477.792 143.144 477.633C141.885 477.436 139.636 477.177 139.019 477.134C138.403 477.093 141.79 478.106 144.325 478.308C144.719 478.339 145.53 478.294 145.904 478.282C147.025 478.241 148.477 477.73 148.995 478.022C149.069 478.065 149.138 478.115 149.196 478.172C149.465 478.433 149.462 478.76 149.19 478.9C148.485 479.266 147.429 479.55 146.021 479.754C145.689 479.802 144.382 479.95 143.904 479.893C141.882 479.648 139.397 478.912 139.167 478.988C138.936 479.064 140.416 479.335 142.205 479.778C142.612 479.879 144.286 480.119 144.598 480.189C145.011 480.28 145.304 480.278 146.019 480.36C147.446 480.524 147.564 481.121 146.79 481.379C146.015 481.636 139.724 481.088 136.959 480.477C135.446 480.142 132.411 479.755 128.718 478.354L114.256 471.96L118.734 463.141ZM151.404 447.888C151.88 447.887 152.338 447.97 152.764 448.123L152.767 448.114L159.79 449.376C164.251 450.606 166.677 451.788 168.285 452.297C171.219 453.228 177.486 456.124 178.099 456.78C178.711 457.435 178.306 457.923 176.865 457.303C176.142 456.993 175.865 456.832 175.428 456.693C175.096 456.588 173.383 455.905 172.944 455.778C171.022 455.22 169.479 454.67 169.661 454.864C169.844 455.06 172.573 455.722 174.62 456.59C175.105 456.797 176.278 457.64 176.571 457.863C177.814 458.812 178.682 459.646 179.176 460.365C179.365 460.641 179.209 460.944 178.825 461.04C178.742 461.061 178.652 461.071 178.56 461.07C177.924 461.06 176.789 459.803 175.739 459.159C175.389 458.945 174.637 458.465 174.247 458.281C171.732 457.096 168.006 456.201 168.614 456.496C169.224 456.79 171.495 457.766 172.793 458.265C173.833 458.666 174.302 458.813 176.076 460.37C177.141 461.303 178.825 463.219 178.836 463.452C178.846 463.684 178.432 463.681 178.389 463.672C177.608 463.48 177.101 463.299 176.866 463.124C175.168 461.863 174.263 460.419 172.031 459.711C169.799 459.004 167.1 457.89 167.341 458.126C167.497 458.279 169.106 459.113 170.411 459.776C172.336 460.752 174.45 462.12 175.072 462.651C175.498 463.014 175.879 463.362 176.217 463.694C176.367 463.842 176.328 464.03 176.128 464.116C176.056 464.147 175.969 464.161 175.878 464.157C175.247 464.121 174.779 463.999 174.473 463.788C173.478 463.099 173.276 462.904 171.735 462.177C171.467 462.051 169.248 461.168 168.806 460.955C165.696 459.453 162.285 458.726 162.113 458.881C160.642 460.197 162.541 460.268 163.887 461.952C165.935 462.151 167.347 462.653 168.887 463.729C168.96 463.781 168.938 464.098 168.394 464.058L161.553 463.376L154.536 457.658L149.826 456.317L149.855 456.235C148.334 455.595 147.259 454.042 147.256 452.227C147.252 449.835 149.109 447.892 151.404 447.888Z" fill="#FFBCBA"/>
<path fill-rule="evenodd" clip-rule="evenodd" d="M102.296 347.29C108.604 346.618 115.506 350.753 115.228 358.312C114.63 374.543 111.211 421.54 110.689 424.02C110.661 424.154 110.633 424.286 110.604 424.417C119.053 428.383 133.71 435.931 153.256 446.9L149.214 458.056C119.648 451.516 101.337 444.742 93.8102 438.225C92.5776 437.458 91.4957 436.383 90.6815 435.027C88.7035 431.733 88.8459 427.686 90.725 424.614C89.2144 405.684 91.6908 368.138 92.3593 357.774C92.7611 353.871 100.451 362.187 102.741 360.476C103.789 359.693 104.139 354.379 103.602 350.752C103.304 348.738 101.584 347.366 102.296 347.29Z" fill="#E8E8E8"/>
<path fill-rule="evenodd" clip-rule="evenodd" d="M82.5749 345.186C45.6785 346.823 51.6066 376.621 51.6066 410.006C51.6066 419.008 49.9697 455.355 54.2489 460.714C70.0694 480.522 101.757 473.584 112.412 462.895C116.515 458.779 115.931 458.256 115.78 422.044C115.695 401.419 120.182 388.224 117.274 378.842C115.176 372.073 110.588 347.205 101.547 346.126C101.386 346.107 99.2066 351.287 98.6289 351.287C95.7675 350.936 83.8187 345.131 82.5749 345.186Z" fill="#DCDBDB"/>
<path fill-rule="evenodd" clip-rule="evenodd" d="M153.154 448.905L150.256 456.703L154.897 457.978L161.811 463.414L168.552 464.063C169.089 464.101 169.111 463.8 169.038 463.75C167.521 462.727 166.13 462.25 164.111 462.06C162.785 460.46 160.914 460.392 162.363 459.141C162.532 458.993 165.894 459.685 168.958 461.112C169.394 461.315 171.581 462.155 171.845 462.275C173.363 462.965 173.563 463.151 174.543 463.806C174.844 464.007 175.306 464.123 175.927 464.157C176.017 464.161 176.103 464.148 176.174 464.118C176.371 464.036 176.409 463.858 176.261 463.716C175.928 463.402 175.553 463.071 175.133 462.725C174.52 462.22 172.437 460.92 170.54 459.992C169.254 459.362 167.669 458.569 167.515 458.423C167.278 458.198 169.937 459.257 172.137 459.93C174.336 460.603 175.228 461.976 176.901 463.175C177.132 463.341 177.632 463.514 178.402 463.696C178.444 463.705 178.852 463.708 178.842 463.487C178.831 463.265 177.172 461.443 176.123 460.557C174.374 459.077 173.912 458.936 172.887 458.555C171.608 458.081 169.37 457.153 168.77 456.873C168.17 456.593 171.842 457.444 174.321 458.571C174.705 458.746 175.446 459.202 175.791 459.405C176.825 460.017 177.944 461.213 178.57 461.222C178.661 461.223 178.75 461.214 178.831 461.194C179.209 461.102 179.363 460.814 179.177 460.552C178.691 459.868 177.835 459.076 176.61 458.173C176.321 457.961 175.165 457.159 174.688 456.962C172.67 456.138 169.981 455.508 169.801 455.322C169.621 455.137 171.142 455.66 173.036 456.19C173.469 456.312 175.156 456.96 175.483 457.061C175.914 457.193 176.188 457.346 176.9 457.641C178.32 458.23 178.719 457.766 178.116 457.143C177.512 456.519 171.337 453.766 168.445 452.881C166.861 452.397 164.47 451.273 160.074 450.104L153.154 448.905Z" fill="black" fill-opacity="0.04"/>
<mask id="mask0" mask-type="alpha" maskUnits="userSpaceOnUse" x="166" y="420" width="45" height="55">
<path d="M166.225 420.695H210.259V474.837H166.225V420.695Z" fill="white"/>
</mask>
<g mask="url(#mask0)">
<path fill-rule="evenodd" clip-rule="evenodd" d="M166.225 474.837L191.287 458.232L210.26 420.695L184.915 437.236L166.225 474.837Z" fill="#9F9FA0"/>
<path fill-rule="evenodd" clip-rule="evenodd" d="M190.924 449.396C189.986 451.389 188.905 452.682 188.091 452.286C187.278 451.89 187.379 449.954 188.317 447.96C189.256 445.968 190.676 444.673 191.489 445.07C192.303 445.466 191.862 447.403 190.924 449.396Z" fill="#BEBEBF"/>
</g>
<path fill-rule="evenodd" clip-rule="evenodd" d="M80.4546 360.436C84.1625 371.277 87.4086 414.551 87.802 429.985C91.329 433.215 96.5166 435.811 122.463 463.114L123.256 463.949L118.364 474.326C89.2348 457.601 76.0177 447.945 71.3926 440.783C71.2219 440.608 71.0684 440.43 70.9341 440.251C64.8142 432.072 55.0443 372.935 57.7053 360.822C60.3674 348.709 76.0842 347.656 80.4546 360.436Z" fill="#E8E8E8"/>
<path d="M74.9422 220L49.2728 164.531L100.612 164.531L74.9422 220Z" fill="#43408E"/>
<rect x="25" width="471" height="181.043" rx="10" fill="#43408E"/>
<path d="M74.7078 36.196V49.346H73.0828V38.946L67.7578 47.746H66.9578L61.6328 38.921V49.346H60.0078V36.196H61.8078L67.3828 45.671L73.0578 36.196H74.7078ZM86.0337 40.846C87.6837 40.8627 88.9421 41.2293 89.8087 41.946C90.6754 42.6627 91.1087 43.696 91.1087 45.046C91.1087 46.446 90.6421 47.521 89.7087 48.271C88.7754 49.021 87.4421 49.3877 85.7087 49.371L80.5087 49.346V36.196H82.2837V40.796L86.0337 40.846ZM93.3087 36.196H95.0837V49.346H93.3087V36.196ZM85.6087 48.021C86.8254 48.0377 87.7421 47.796 88.3587 47.296C88.9921 46.7793 89.3087 46.0293 89.3087 45.046C89.3087 44.0793 89.0004 43.3627 88.3837 42.896C87.7671 42.4293 86.8421 42.1877 85.6087 42.171L82.2837 42.121V47.971L85.6087 48.021ZM116.406 49.346L112.231 43.846L108.031 49.346H106.031L111.231 42.596L106.281 36.196H108.281L112.231 41.346L116.181 36.196H118.131L113.181 42.596L118.431 49.346H116.406ZM127.051 49.471C125.784 49.471 124.643 49.1877 123.626 48.621C122.609 48.0377 121.809 47.2377 121.226 46.221C120.643 45.2043 120.351 44.0543 120.351 42.771C120.351 41.4877 120.643 40.3377 121.226 39.321C121.809 38.3043 122.609 37.5127 123.626 36.946C124.643 36.3793 125.784 36.096 127.051 36.096C128.318 36.096 129.459 36.3793 130.476 36.946C131.493 37.5127 132.284 38.3043 132.851 39.321C133.434 40.3377 133.726 41.4877 133.726 42.771C133.726 44.0543 133.434 45.2043 132.851 46.221C132.284 47.2377 131.493 48.0377 130.476 48.621C129.459 49.1877 128.318 49.471 127.051 49.471ZM127.051 47.896C127.984 47.896 128.818 47.6877 129.551 47.271C130.301 46.8377 130.884 46.2293 131.301 45.446C131.718 44.6627 131.926 43.771 131.926 42.771C131.926 41.771 131.718 40.8793 131.301 40.096C130.884 39.3127 130.301 38.7127 129.551 38.296C128.818 37.8627 127.984 37.646 127.051 37.646C126.118 37.646 125.276 37.8627 124.526 38.296C123.793 38.7127 123.209 39.3127 122.776 40.096C122.359 40.8793 122.151 41.771 122.151 42.771C122.151 43.771 122.359 44.6627 122.776 45.446C123.209 46.2293 123.793 46.8377 124.526 47.271C125.276 47.6877 126.118 47.896 127.051 47.896ZM147.031 37.771H142.056V49.346H140.281V37.771H135.306V36.196H147.031V37.771ZM150.348 36.196H152.123V46.646L160.898 36.196H162.473V49.346H160.698V38.896L151.948 49.346H150.348V36.196ZM183.01 36.196V49.346H181.385V38.946L176.06 47.746H175.26L169.935 38.921V49.346H168.31V36.196H170.11L175.685 45.671L181.36 36.196H183.01ZM196.103 36.196H197.878V42.021H206.153V36.196H207.928V49.346H206.153V43.546H197.878V49.346H196.103V36.196ZM218.249 36.096C219.965 36.096 221.282 36.5293 222.199 37.396C223.115 38.246 223.574 39.5127 223.574 41.196V49.346H221.874V47.296C221.474 47.9793 220.882 48.5127 220.099 48.896C219.332 49.2793 218.415 49.471 217.349 49.471C215.882 49.471 214.715 49.121 213.849 48.421C212.982 47.721 212.549 46.796 212.549 45.646C212.549 44.5293 212.949 43.6293 213.749 42.946C214.565 42.2627 215.857 41.921 217.624 41.921H221.799V41.121C221.799 39.9877 221.482 39.1293 220.849 38.546C220.215 37.946 219.29 37.646 218.074 37.646C217.24 37.646 216.44 37.7877 215.674 38.071C214.907 38.3377 214.249 38.7127 213.699 39.196L212.899 37.871C213.565 37.3043 214.365 36.871 215.299 36.571C216.232 36.2543 217.215 36.096 218.249 36.096ZM217.624 48.071C218.624 48.071 219.482 47.846 220.199 47.396C220.915 46.9293 221.449 46.2627 221.799 45.396V43.246H217.674C215.424 43.246 214.299 44.0293 214.299 45.596C214.299 46.3627 214.59 46.971 215.174 47.421C215.757 47.8543 216.574 48.071 217.624 48.071ZM229.049 36.196H230.824V42.021H239.099V36.196H240.874V49.346H239.099V43.546H230.824V49.346H229.049V36.196ZM256.769 36.196V49.346H255.144V44.996H251.019H250.519L247.469 49.346H245.544L248.819 44.746C247.802 44.4627 247.019 43.9793 246.469 43.296C245.919 42.6127 245.644 41.746 245.644 40.696C245.644 39.2293 246.144 38.1127 247.144 37.346C248.144 36.5793 249.511 36.196 251.244 36.196H256.769ZM247.444 40.746C247.444 42.696 248.686 43.671 251.169 43.671H255.144V37.771H251.294C248.727 37.771 247.444 38.7627 247.444 40.746ZM271.83 37.771H266.855V49.346H265.08V37.771H260.105V36.196H271.83V37.771ZM280.796 40.846C282.446 40.8627 283.696 41.2293 284.546 41.946C285.413 42.6627 285.846 43.696 285.846 45.046C285.846 46.446 285.38 47.521 284.446 48.271C283.53 49.021 282.196 49.3877 280.446 49.371L275.146 49.346V36.196H276.921V40.796L280.796 40.846ZM280.346 48.021C281.563 48.0377 282.48 47.796 283.096 47.296C283.73 46.7793 284.046 46.0293 284.046 45.046C284.046 44.0793 283.738 43.3627 283.121 42.896C282.505 42.4293 281.58 42.1877 280.346 42.171L276.921 42.121V47.971L280.346 48.021ZM306.526 37.771H301.551V49.346H299.776V37.771H294.801V36.196H306.526V37.771ZM314.657 49.471C313.391 49.471 312.249 49.1877 311.232 48.621C310.216 48.0377 309.416 47.2377 308.832 46.221C308.249 45.2043 307.957 44.0543 307.957 42.771C307.957 41.4877 308.249 40.3377 308.832 39.321C309.416 38.3043 310.216 37.5127 311.232 36.946C312.249 36.3793 313.391 36.096 314.657 36.096C315.924 36.096 317.066 36.3793 318.082 36.946C319.099 37.5127 319.891 38.3043 320.457 39.321C321.041 40.3377 321.332 41.4877 321.332 42.771C321.332 44.0543 321.041 45.2043 320.457 46.221C319.891 47.2377 319.099 48.0377 318.082 48.621C317.066 49.1877 315.924 49.471 314.657 49.471ZM314.657 47.896C315.591 47.896 316.424 47.6877 317.157 47.271C317.907 46.8377 318.491 46.2293 318.907 45.446C319.324 44.6627 319.532 43.771 319.532 42.771C319.532 41.771 319.324 40.8793 318.907 40.096C318.491 39.3127 317.907 38.7127 317.157 38.296C316.424 37.8627 315.591 37.646 314.657 37.646C313.724 37.646 312.882 37.8627 312.132 38.296C311.399 38.7127 310.816 39.3127 310.382 40.096C309.966 40.8793 309.757 41.771 309.757 42.771C309.757 43.771 309.966 44.6627 310.382 45.446C310.816 46.2293 311.399 46.8377 312.132 47.271C312.882 47.6877 313.724 47.896 314.657 47.896ZM335.176 37.771H327.651V49.346H325.876V36.196H335.176V37.771ZM343.306 49.471C342.039 49.471 340.897 49.1877 339.881 48.621C338.864 48.0377 338.064 47.2377 337.481 46.221C336.897 45.2043 336.606 44.0543 336.606 42.771C336.606 41.4877 336.897 40.3377 337.481 39.321C338.064 38.3043 338.864 37.5127 339.881 36.946C340.897 36.3793 342.039 36.096 343.306 36.096C344.572 36.096 345.714 36.3793 346.731 36.946C347.747 37.5127 348.539 38.3043 349.106 39.321C349.689 40.3377 349.981 41.4877 349.981 42.771C349.981 44.0543 349.689 45.2043 349.106 46.221C348.539 47.2377 347.747 48.0377 346.731 48.621C345.714 49.1877 344.572 49.471 343.306 49.471ZM343.306 47.896C344.239 47.896 345.072 47.6877 345.806 47.271C346.556 46.8377 347.139 46.2293 347.556 45.446C347.972 44.6627 348.181 43.771 348.181 42.771C348.181 41.771 347.972 40.8793 347.556 40.096C347.139 39.3127 346.556 38.7127 345.806 38.296C345.072 37.8627 344.239 37.646 343.306 37.646C342.372 37.646 341.531 37.8627 340.781 38.296C340.047 38.7127 339.464 39.3127 339.031 40.096C338.614 40.8793 338.406 41.771 338.406 42.771C338.406 43.771 338.614 44.6627 339.031 45.446C339.464 46.2293 340.047 46.8377 340.781 47.271C341.531 47.6877 342.372 47.896 343.306 47.896ZM354.308 46.746C354.691 46.746 355.008 46.8793 355.258 47.146C355.508 47.396 355.633 47.7127 355.633 48.096C355.633 48.296 355.6 48.5127 355.533 48.746C355.483 48.9793 355.4 49.246 355.283 49.546L354.233 52.996H353.033L353.883 49.371C353.616 49.2877 353.4 49.1377 353.233 48.921C353.066 48.6877 352.983 48.4127 352.983 48.096C352.983 47.7127 353.108 47.396 353.358 47.146C353.608 46.8793 353.925 46.746 354.308 46.746ZM372.274 43.496H369.274V49.346H367.499V36.196H369.274V41.971H372.299L376.924 36.196H378.849L373.674 42.571L379.224 49.346H377.124L372.274 43.496ZM391.757 37.771H386.782V49.346H385.007V37.771H380.032V36.196H391.757V37.771ZM399.888 49.471C398.621 49.471 397.48 49.1877 396.463 48.621C395.446 48.0377 394.646 47.2377 394.063 46.221C393.48 45.2043 393.188 44.0543 393.188 42.771C393.188 41.4877 393.48 40.3377 394.063 39.321C394.646 38.3043 395.446 37.5127 396.463 36.946C397.48 36.3793 398.621 36.096 399.888 36.096C401.155 36.096 402.296 36.3793 403.313 36.946C404.33 37.5127 405.121 38.3043 405.688 39.321C406.271 40.3377 406.563 41.4877 406.563 42.771C406.563 44.0543 406.271 45.2043 405.688 46.221C405.121 47.2377 404.33 48.0377 403.313 48.621C402.296 49.1877 401.155 49.471 399.888 49.471ZM399.888 47.896C400.821 47.896 401.655 47.6877 402.388 47.271C403.138 46.8377 403.721 46.2293 404.138 45.446C404.555 44.6627 404.763 43.771 404.763 42.771C404.763 41.771 404.555 40.8793 404.138 40.096C403.721 39.3127 403.138 38.7127 402.388 38.296C401.655 37.8627 400.821 37.646 399.888 37.646C398.955 37.646 398.113 37.8627 397.363 38.296C396.63 38.7127 396.046 39.3127 395.613 40.096C395.196 40.8793 394.988 41.771 394.988 42.771C394.988 43.771 395.196 44.6627 395.613 45.446C396.046 46.2293 396.63 46.8377 397.363 47.271C398.113 47.6877 398.955 47.896 399.888 47.896ZM66.3828 66.521C67.5994 66.521 68.6828 66.796 69.6328 67.346C70.5994 67.8793 71.3494 68.6377 71.8828 69.621C72.4161 70.5877 72.6828 71.696 72.6828 72.946C72.6828 74.2293 72.3994 75.371 71.8328 76.371C71.2828 77.3543 70.5078 78.121 69.5078 78.671C68.5078 79.221 67.3578 79.496 66.0578 79.496C63.8744 79.496 62.1828 78.7293 60.9828 77.196C59.7828 75.6627 59.1828 73.546 59.1828 70.846C59.1828 68.0293 59.7161 65.871 60.7828 64.371C61.8661 62.871 63.5494 61.8543 65.8328 61.321L71.7328 59.971L72.0328 61.596L66.4828 62.871C64.5994 63.2877 63.2161 64.0293 62.3328 65.096C61.4494 66.146 60.9661 67.7043 60.8828 69.771C61.4161 68.7543 62.1578 67.9627 63.1078 67.396C64.0578 66.8127 65.1494 66.521 66.3828 66.521ZM66.1078 78.021C67.0244 78.021 67.8411 77.8127 68.5578 77.396C69.2911 76.9627 69.8578 76.3627 70.2578 75.596C70.6744 74.8293 70.8828 73.9627 70.8828 72.996C70.8828 72.0293 70.6828 71.1793 70.2828 70.446C69.8828 69.7127 69.3161 69.146 68.5828 68.746C67.8661 68.3293 67.0411 68.121 66.1078 68.121C65.1744 68.121 64.3411 68.3293 63.6078 68.746C62.8911 69.146 62.3244 69.7127 61.9078 70.446C61.5078 71.1793 61.3078 72.0293 61.3078 72.996C61.3078 73.9627 61.5078 74.8293 61.9078 75.596C62.3244 76.3627 62.8994 76.9627 63.6328 77.396C64.3661 77.8127 65.1911 78.021 66.1078 78.021ZM88.046 66.196L81.471 80.921C80.9377 82.1543 80.321 83.0293 79.621 83.546C78.921 84.0627 78.0794 84.321 77.096 84.321C76.4627 84.321 75.871 84.221 75.321 84.021C74.771 83.821 74.296 83.521 73.896 83.121L74.721 81.796C75.3877 82.4627 76.1877 82.796 77.121 82.796C77.721 82.796 78.2294 82.6293 78.646 82.296C79.0794 81.9627 79.4794 81.396 79.846 80.596L80.421 79.321L74.546 66.196H76.396L81.346 77.371L86.296 66.196H88.046ZM103.801 77.796V82.521H102.126V79.346H90.3505V82.521H88.6755V77.796H89.4255C90.3089 77.746 90.9089 77.096 91.2255 75.846C91.5422 74.596 91.7589 72.846 91.8755 70.596L92.0505 66.196H101.751V77.796H103.801ZM93.5005 70.696C93.4172 72.5627 93.2589 74.1043 93.0255 75.321C92.7922 76.521 92.3755 77.346 91.7755 77.796H99.9755V67.771H93.6505L93.5005 70.696ZM119.51 73.321H108.51C108.61 74.6877 109.135 75.796 110.085 76.646C111.035 77.4793 112.235 77.896 113.685 77.896C114.501 77.896 115.251 77.7543 115.935 77.471C116.618 77.171 117.21 76.7377 117.71 76.171L118.71 77.321C118.126 78.021 117.393 78.5543 116.51 78.921C115.643 79.2877 114.685 79.471 113.635 79.471C112.285 79.471 111.085 79.1877 110.035 78.621C109.001 78.0377 108.193 77.2377 107.61 76.221C107.026 75.2043 106.735 74.0543 106.735 72.771C106.735 71.4877 107.01 70.3377 107.56 69.321C108.126 68.3043 108.893 67.5127 109.86 66.946C110.843 66.3793 111.943 66.096 113.16 66.096C114.376 66.096 115.468 66.3793 116.435 66.946C117.401 67.5127 118.16 68.3043 118.71 69.321C119.26 70.321 119.535 71.471 119.535 72.771L119.51 73.321ZM113.16 67.621C111.893 67.621 110.826 68.0293 109.96 68.846C109.11 69.646 108.626 70.696 108.51 71.996H117.835C117.718 70.696 117.226 69.646 116.36 68.846C115.51 68.0293 114.443 67.621 113.16 67.621ZM132.878 67.771H127.903V79.346H126.128V67.771H121.153V66.196H132.878V67.771ZM148.912 79.471C147.646 79.471 146.504 79.1877 145.487 78.621C144.471 78.0377 143.671 77.2377 143.087 76.221C142.504 75.2043 142.212 74.0543 142.212 72.771C142.212 71.4877 142.504 70.3377 143.087 69.321C143.671 68.3043 144.471 67.5127 145.487 66.946C146.504 66.3793 147.646 66.096 148.912 66.096C150.179 66.096 151.321 66.3793 152.337 66.946C153.354 67.5127 154.146 68.3043 154.712 69.321C155.296 70.3377 155.587 71.4877 155.587 72.771C155.587 74.0543 155.296 75.2043 154.712 76.221C154.146 77.2377 153.354 78.0377 152.337 78.621C151.321 79.1877 150.179 79.471 148.912 79.471ZM148.912 77.896C149.846 77.896 150.679 77.6877 151.412 77.271C152.162 76.8377 152.746 76.2293 153.162 75.446C153.579 74.6627 153.787 73.771 153.787 72.771C153.787 71.771 153.579 70.8793 153.162 70.096C152.746 69.3127 152.162 68.7127 151.412 68.296C150.679 67.8627 149.846 67.646 148.912 67.646C147.979 67.646 147.137 67.8627 146.387 68.296C145.654 68.7127 145.071 69.3127 144.637 70.096C144.221 70.8793 144.012 71.771 144.012 72.771C144.012 73.771 144.221 74.6627 144.637 75.446C145.071 76.2293 145.654 76.8377 146.387 77.271C147.137 77.6877 147.979 77.896 148.912 77.896ZM168.893 67.771H163.918V79.346H162.143V67.771H157.168V66.196H168.893V67.771ZM180.584 72.546C182.367 72.9627 183.259 74.0377 183.259 75.771C183.259 76.921 182.834 77.8043 181.984 78.421C181.134 79.0377 179.867 79.346 178.184 79.346H172.209V66.196H178.009C179.509 66.196 180.684 66.4877 181.534 67.071C182.384 67.6543 182.809 68.4877 182.809 69.571C182.809 70.2877 182.609 70.9043 182.209 71.421C181.826 71.921 181.284 72.296 180.584 72.546ZM173.934 72.046H177.884C178.901 72.046 179.676 71.8543 180.209 71.471C180.759 71.0877 181.034 70.5293 181.034 69.796C181.034 69.0627 180.759 68.5127 180.209 68.146C179.676 67.7793 178.901 67.596 177.884 67.596H173.934V72.046ZM178.109 77.946C179.242 77.946 180.092 77.7627 180.659 77.396C181.226 77.0293 181.509 76.4543 181.509 75.671C181.509 74.8877 181.251 74.3127 180.734 73.946C180.217 73.5627 179.401 73.371 178.284 73.371H173.934V77.946H178.109ZM199.669 73.321H188.669C188.769 74.6877 189.294 75.796 190.244 76.646C191.194 77.4793 192.394 77.896 193.844 77.896C194.661 77.896 195.411 77.7543 196.094 77.471C196.777 77.171 197.369 76.7377 197.869 76.171L198.869 77.321C198.286 78.021 197.552 78.5543 196.669 78.921C195.802 79.2877 194.844 79.471 193.794 79.471C192.444 79.471 191.244 79.1877 190.194 78.621C189.161 78.0377 188.352 77.2377 187.769 76.221C187.186 75.2043 186.894 74.0543 186.894 72.771C186.894 71.4877 187.169 70.3377 187.719 69.321C188.286 68.3043 189.052 67.5127 190.019 66.946C191.002 66.3793 192.102 66.096 193.319 66.096C194.536 66.096 195.627 66.3793 196.594 66.946C197.561 67.5127 198.319 68.3043 198.869 69.321C199.419 70.321 199.694 71.471 199.694 72.771L199.669 73.321ZM193.319 67.621C192.052 67.621 190.986 68.0293 190.119 68.846C189.269 69.646 188.786 70.696 188.669 71.996H197.994C197.877 70.696 197.386 69.646 196.519 68.846C195.669 68.0293 194.602 67.621 193.319 67.621ZM214.298 66.196V79.346H212.523V73.871C211.006 74.5377 209.515 74.871 208.048 74.871C206.465 74.871 205.231 74.5127 204.348 73.796C203.465 73.0627 203.023 71.971 203.023 70.521V66.196H204.798V70.421C204.798 71.4043 205.115 72.1543 205.748 72.671C206.381 73.171 207.256 73.421 208.373 73.421C209.606 73.421 210.99 73.096 212.523 72.446V66.196H214.298ZM224.614 66.096C226.33 66.096 227.647 66.5293 228.564 67.396C229.48 68.246 229.939 69.5127 229.939 71.196V79.346H228.239V77.296C227.839 77.9793 227.247 78.5127 226.464 78.896C225.697 79.2793 224.78 79.471 223.714 79.471C222.247 79.471 221.08 79.121 220.214 78.421C219.347 77.721 218.914 76.796 218.914 75.646C218.914 74.5293 219.314 73.6293 220.114 72.946C220.93 72.2627 222.222 71.921 223.989 71.921H228.164V71.121C228.164 69.9877 227.847 69.1293 227.214 68.546C226.58 67.946 225.655 67.646 224.439 67.646C223.605 67.646 222.805 67.7877 222.039 68.071C221.272 68.3377 220.614 68.7127 220.064 69.196L219.264 67.871C219.93 67.3043 220.73 66.871 221.664 66.571C222.597 66.2543 223.58 66.096 224.614 66.096ZM223.989 78.071C224.989 78.071 225.847 77.846 226.564 77.396C227.28 76.9293 227.814 76.2627 228.164 75.396V73.246H224.039C221.789 73.246 220.664 74.0293 220.664 75.596C220.664 76.3627 220.955 76.971 221.539 77.421C222.122 77.8543 222.939 78.071 223.989 78.071ZM244.664 67.771H239.689V79.346H237.914V67.771H232.939V66.196H244.664V67.771ZM253.63 70.846C255.28 70.8627 256.53 71.2293 257.38 71.946C258.247 72.6627 258.68 73.696 258.68 75.046C258.68 76.446 258.214 77.521 257.28 78.271C256.364 79.021 255.03 79.3877 253.28 79.371L247.98 79.346V66.196H249.755V70.796L253.63 70.846ZM253.18 78.021C254.397 78.0377 255.314 77.796 255.93 77.296C256.564 76.7793 256.88 76.0293 256.88 75.046C256.88 74.0793 256.572 73.3627 255.955 72.896C255.339 72.4293 254.414 72.1877 253.18 72.171L249.755 72.121V77.971L253.18 78.021ZM276.51 72.496C277.444 72.7127 278.16 73.0877 278.66 73.621C279.177 74.1543 279.435 74.8043 279.435 75.571C279.435 76.3377 279.169 77.021 278.635 77.621C278.119 78.221 277.41 78.6877 276.51 79.021C275.61 79.3377 274.619 79.496 273.535 79.496C272.585 79.496 271.652 79.3627 270.735 79.096C269.819 78.8127 269.019 78.4043 268.335 77.871L268.935 76.546C269.535 76.996 270.235 77.346 271.035 77.596C271.835 77.846 272.644 77.971 273.46 77.971C274.677 77.971 275.669 77.746 276.435 77.296C277.219 76.8293 277.61 76.2043 277.61 75.421C277.61 74.721 277.294 74.1793 276.66 73.796C276.027 73.396 275.16 73.196 274.06 73.196H271.81V71.896H273.96C274.944 71.896 275.735 71.7127 276.335 71.346C276.935 70.9627 277.235 70.4543 277.235 69.821C277.235 69.121 276.894 68.571 276.21 68.171C275.544 67.771 274.669 67.571 273.585 67.571C272.169 67.571 270.769 67.9293 269.385 68.646L268.885 67.271C270.452 66.4543 272.077 66.046 273.76 66.046C274.76 66.046 275.66 66.196 276.46 66.496C277.277 66.7793 277.91 67.1877 278.36 67.721C278.827 68.2543 279.06 68.871 279.06 69.571C279.06 70.2377 278.827 70.8293 278.36 71.346C277.91 71.8627 277.294 72.246 276.51 72.496ZM288.74 66.096C290.456 66.096 291.773 66.5293 292.69 67.396C293.606 68.246 294.065 69.5127 294.065 71.196V79.346H292.365V77.296C291.965 77.9793 291.373 78.5127 290.59 78.896C289.823 79.2793 288.906 79.471 287.84 79.471C286.373 79.471 285.206 79.121 284.34 78.421C283.473 77.721 283.04 76.796 283.04 75.646C283.04 74.5293 283.44 73.6293 284.24 72.946C285.056 72.2627 286.348 71.921 288.115 71.921H292.29V71.121C292.29 69.9877 291.973 69.1293 291.34 68.546C290.706 67.946 289.781 67.646 288.565 67.646C287.731 67.646 286.931 67.7877 286.165 68.071C285.398 68.3377 284.74 68.7127 284.19 69.196L283.39 67.871C284.056 67.3043 284.856 66.871 285.79 66.571C286.723 66.2543 287.706 66.096 288.74 66.096ZM288.115 78.071C289.115 78.071 289.973 77.846 290.69 77.396C291.406 76.9293 291.94 76.2627 292.29 75.396V73.246H288.165C285.915 73.246 284.79 74.0293 284.79 75.596C284.79 76.3627 285.081 76.971 285.665 77.421C286.248 77.8543 287.065 78.071 288.115 78.071ZM306.833 66.196H308.608V72.021H316.883V66.196H318.658V79.346H316.883V73.546H308.608V79.346H306.833V66.196ZM328.978 66.096C330.695 66.096 332.011 66.5293 332.928 67.396C333.845 68.246 334.303 69.5127 334.303 71.196V79.346H332.603V77.296C332.203 77.9793 331.611 78.5127 330.828 78.896C330.061 79.2793 329.145 79.471 328.078 79.471C326.611 79.471 325.445 79.121 324.578 78.421C323.711 77.721 323.278 76.796 323.278 75.646C323.278 74.5293 323.678 73.6293 324.478 72.946C325.295 72.2627 326.586 71.921 328.353 71.921H332.528V71.121C332.528 69.9877 332.211 69.1293 331.578 68.546C330.945 67.946 330.02 67.646 328.803 67.646C327.97 67.646 327.17 67.7877 326.403 68.071C325.636 68.3377 324.978 68.7127 324.428 69.196L323.628 67.871C324.295 67.3043 325.095 66.871 326.028 66.571C326.961 66.2543 327.945 66.096 328.978 66.096ZM328.353 78.071C329.353 78.071 330.211 77.846 330.928 77.396C331.645 76.9293 332.178 76.2627 332.528 75.396V73.246H328.403C326.153 73.246 325.028 74.0293 325.028 75.596C325.028 76.3627 325.32 76.971 325.903 77.421C326.486 77.8543 327.303 78.071 328.353 78.071ZM357.928 66.196V79.346H339.778V66.196H341.553V77.796H348.003V66.196H349.778V77.796H356.153V66.196H357.928ZM382.839 66.196V79.346H381.064V67.771H372.814V79.346H371.039V66.196H382.839ZM395.41 66.096C396.643 66.096 397.76 66.3793 398.76 66.946C399.76 67.496 400.543 68.2793 401.11 69.296C401.676 70.3127 401.96 71.471 401.96 72.771C401.96 74.0877 401.676 75.2543 401.11 76.271C400.543 77.2877 399.76 78.0793 398.76 78.646C397.776 79.196 396.66 79.471 395.41 79.471C394.343 79.471 393.376 79.2543 392.51 78.821C391.66 78.371 390.96 77.721 390.41 76.871V84.196H388.635V66.196H390.335V68.796C390.868 67.9293 391.568 67.2627 392.435 66.796C393.318 66.3293 394.31 66.096 395.41 66.096ZM395.285 77.896C396.201 77.896 397.035 77.6877 397.785 77.271C398.535 76.8377 399.118 76.2293 399.535 75.446C399.968 74.6627 400.185 73.771 400.185 72.771C400.185 71.771 399.968 70.8877 399.535 70.121C399.118 69.3377 398.535 68.7293 397.785 68.296C397.035 67.8627 396.201 67.646 395.285 67.646C394.351 67.646 393.51 67.8627 392.76 68.296C392.026 68.7293 391.443 69.3377 391.01 70.121C390.593 70.8877 390.385 71.771 390.385 72.771C390.385 73.771 390.593 74.6627 391.01 75.446C391.443 76.2293 392.026 76.8377 392.76 77.271C393.51 77.6877 394.351 77.896 395.285 77.896ZM411.948 79.471C410.682 79.471 409.54 79.1877 408.523 78.621C407.507 78.0377 406.707 77.2377 406.123 76.221C405.54 75.2043 405.248 74.0543 405.248 72.771C405.248 71.4877 405.54 70.3377 406.123 69.321C406.707 68.3043 407.507 67.5127 408.523 66.946C409.54 66.3793 410.682 66.096 411.948 66.096C413.215 66.096 414.357 66.3793 415.373 66.946C416.39 67.5127 417.182 68.3043 417.748 69.321C418.332 70.3377 418.623 71.4877 418.623 72.771C418.623 74.0543 418.332 75.2043 417.748 76.221C417.182 77.2377 416.39 78.0377 415.373 78.621C414.357 79.1877 413.215 79.471 411.948 79.471ZM411.948 77.896C412.882 77.896 413.715 77.6877 414.448 77.271C415.198 76.8377 415.782 76.2293 416.198 75.446C416.615 74.6627 416.823 73.771 416.823 72.771C416.823 71.771 416.615 70.8793 416.198 70.096C415.782 69.3127 415.198 68.7127 414.448 68.296C413.715 67.8627 412.882 67.646 411.948 67.646C411.015 67.646 410.173 67.8627 409.423 68.296C408.69 68.7127 408.107 69.3127 407.673 70.096C407.257 70.8793 407.048 71.771 407.048 72.771C407.048 73.771 407.257 74.6627 407.673 75.446C408.107 76.2293 408.69 76.8377 409.423 77.271C410.173 77.6877 411.015 77.896 411.948 77.896ZM435.919 77.796V82.521H434.244V79.346H422.469V82.521H420.794V77.796H421.544C422.427 77.746 423.027 77.096 423.344 75.846C423.66 74.596 423.877 72.846 423.994 70.596L424.169 66.196H433.869V77.796H435.919ZM425.619 70.696C425.535 72.5627 425.377 74.1043 425.144 75.321C424.91 76.521 424.494 77.346 423.894 77.796H432.094V67.771H425.769L425.619 70.696ZM451.303 66.196L444.728 80.921C444.195 82.1543 443.578 83.0293 442.878 83.546C442.178 84.0627 441.336 84.321 440.353 84.321C439.72 84.321 439.128 84.221 438.578 84.021C438.028 83.821 437.553 83.521 437.153 83.121L437.978 81.796C438.645 82.4627 439.445 82.796 440.378 82.796C440.978 82.796 441.486 82.6293 441.903 82.296C442.336 81.9627 442.736 81.396 443.103 80.596L443.678 79.321L437.803 66.196H439.653L444.603 77.371L449.553 66.196H451.303ZM459.593 73.496H456.593V79.346H454.818V66.196H456.593V71.971H459.618L464.243 66.196H466.168L460.993 72.571L466.543 79.346H464.443L459.593 73.496ZM479.076 67.771H474.101V79.346H472.326V67.771H467.351V66.196H479.076V67.771ZM60.0078 96.196H61.7828V102.021H70.0578V96.196H71.8328V109.346H70.0578V103.546H61.7828V109.346H60.0078V96.196ZM82.1529 96.096C83.8695 96.096 85.1862 96.5293 86.1029 97.396C87.0195 98.246 87.4779 99.5127 87.4779 101.196V109.346H85.7779V107.296C85.3779 107.979 84.7862 108.513 84.0029 108.896C83.2362 109.279 82.3195 109.471 81.2529 109.471C79.7862 109.471 78.6195 109.121 77.7529 108.421C76.8862 107.721 76.4529 106.796 76.4529 105.646C76.4529 104.529 76.8529 103.629 77.6529 102.946C78.4695 102.263 79.7612 101.921 81.5279 101.921H85.7029V101.121C85.7029 99.9877 85.3862 99.1293 84.7529 98.546C84.1195 97.946 83.1945 97.646 81.9779 97.646C81.1445 97.646 80.3445 97.7877 79.5779 98.071C78.8112 98.3377 78.1529 98.7127 77.6029 99.196L76.8029 97.871C77.4695 97.3043 78.2695 96.871 79.2029 96.571C80.1362 96.2543 81.1195 96.096 82.1529 96.096ZM81.5279 108.071C82.5279 108.071 83.3862 107.846 84.1029 107.396C84.8195 106.929 85.3529 106.263 85.7029 105.396V103.246H81.5779C79.3279 103.246 78.2029 104.029 78.2029 105.596C78.2029 106.363 78.4945 106.971 79.0779 107.421C79.6612 107.854 80.4779 108.071 81.5279 108.071ZM105.746 109.471C104.446 109.471 103.279 109.188 102.246 108.621C101.229 108.054 100.429 107.263 99.846 106.246C99.2627 105.213 98.971 104.054 98.971 102.771C98.971 101.488 99.2627 100.338 99.846 99.321C100.429 98.3043 101.229 97.5127 102.246 96.946C103.279 96.3793 104.446 96.096 105.746 96.096C106.879 96.096 107.888 96.321 108.771 96.771C109.671 97.2043 110.379 97.846 110.896 98.696L109.571 99.596C109.138 98.946 108.588 98.4627 107.921 98.146C107.254 97.8127 106.529 97.646 105.746 97.646C104.796 97.646 103.938 97.8627 103.171 98.296C102.421 98.7127 101.829 99.3127 101.396 100.096C100.979 100.879 100.771 101.771 100.771 102.771C100.771 103.788 100.979 104.688 101.396 105.471C101.829 106.238 102.421 106.838 103.171 107.271C103.938 107.688 104.796 107.896 105.746 107.896C106.529 107.896 107.254 107.738 107.921 107.421C108.588 107.104 109.138 106.621 109.571 105.971L110.896 106.871C110.379 107.721 109.671 108.371 108.771 108.821C107.871 109.254 106.863 109.471 105.746 109.471ZM124.089 97.771H119.114V109.346H117.339V97.771H112.364V96.196H124.089V97.771ZM132.93 100.846C134.58 100.863 135.839 101.229 136.705 101.946C137.572 102.663 138.005 103.696 138.005 105.046C138.005 106.446 137.539 107.521 136.605 108.271C135.672 109.021 134.339 109.388 132.605 109.371L127.405 109.346V96.196H129.18V100.796L132.93 100.846ZM140.205 96.196H141.98V109.346H140.205V96.196ZM132.505 108.021C133.722 108.038 134.639 107.796 135.255 107.296C135.889 106.779 136.205 106.029 136.205 105.046C136.205 104.079 135.897 103.363 135.28 102.896C134.664 102.429 133.739 102.188 132.505 102.171L129.18 102.121V107.971L132.505 108.021ZM152.559 103.496H149.559V109.346H147.784V96.196H149.559V101.971H152.584L157.209 96.196H159.134L153.959 102.571L159.509 109.346H157.409L152.559 103.496ZM174.097 103.321H163.097C163.197 104.688 163.722 105.796 164.672 106.646C165.622 107.479 166.822 107.896 168.272 107.896C169.088 107.896 169.838 107.754 170.522 107.471C171.205 107.171 171.797 106.738 172.297 106.171L173.297 107.321C172.713 108.021 171.98 108.554 171.097 108.921C170.23 109.288 169.272 109.471 168.222 109.471C166.872 109.471 165.672 109.188 164.622 108.621C163.588 108.038 162.78 107.238 162.197 106.221C161.613 105.204 161.322 104.054 161.322 102.771C161.322 101.488 161.597 100.338 162.147 99.321C162.713 98.3043 163.48 97.5127 164.447 96.946C165.43 96.3793 166.53 96.096 167.747 96.096C168.963 96.096 170.055 96.3793 171.022 96.946C171.988 97.5127 172.747 98.3043 173.297 99.321C173.847 100.321 174.122 101.471 174.122 102.771L174.097 103.321ZM167.747 97.621C166.48 97.621 165.413 98.0293 164.547 98.846C163.697 99.646 163.213 100.696 163.097 101.996H172.422C172.305 100.696 171.813 99.646 170.947 98.846C170.097 98.0293 169.03 97.621 167.747 97.621ZM192.469 96.521C193.685 96.521 194.769 96.796 195.719 97.346C196.685 97.8793 197.435 98.6377 197.969 99.621C198.502 100.588 198.769 101.696 198.769 102.946C198.769 104.229 198.485 105.371 197.919 106.371C197.369 107.354 196.594 108.121 195.594 108.671C194.594 109.221 193.444 109.496 192.144 109.496C189.96 109.496 188.269 108.729 187.069 107.196C185.869 105.663 185.269 103.546 185.269 100.846C185.269 98.0293 185.802 95.871 186.869 94.371C187.952 92.871 189.635 91.8543 191.919 91.321L197.819 89.971L198.119 91.596L192.569 92.871C190.685 93.2877 189.302 94.0293 188.419 95.096C187.535 96.146 187.052 97.7043 186.969 99.771C187.502 98.7543 188.244 97.9627 189.194 97.396C190.144 96.8127 191.235 96.521 192.469 96.521ZM192.194 108.021C193.11 108.021 193.927 107.813 194.644 107.396C195.377 106.963 195.944 106.363 196.344 105.596C196.76 104.829 196.969 103.963 196.969 102.996C196.969 102.029 196.769 101.179 196.369 100.446C195.969 99.7127 195.402 99.146 194.669 98.746C193.952 98.3293 193.127 98.121 192.194 98.121C191.26 98.121 190.427 98.3293 189.694 98.746C188.977 99.146 188.41 99.7127 187.994 100.446C187.594 101.179 187.394 102.029 187.394 102.996C187.394 103.963 187.594 104.829 187.994 105.596C188.41 106.363 188.985 106.963 189.719 107.396C190.452 107.813 191.277 108.021 192.194 108.021ZM203.323 96.196H205.098V106.646L213.873 96.196H215.448V109.346H213.673V98.896L204.923 109.346H203.323V96.196ZM227.417 102.496C228.35 102.713 229.067 103.088 229.567 103.621C230.083 104.154 230.342 104.804 230.342 105.571C230.342 106.338 230.075 107.021 229.542 107.621C229.025 108.221 228.317 108.688 227.417 109.021C226.517 109.338 225.525 109.496 224.442 109.496C223.492 109.496 222.558 109.363 221.642 109.096C220.725 108.813 219.925 108.404 219.242 107.871L219.842 106.546C220.442 106.996 221.142 107.346 221.942 107.596C222.742 107.846 223.55 107.971 224.367 107.971C225.583 107.971 226.575 107.746 227.342 107.296C228.125 106.829 228.517 106.204 228.517 105.421C228.517 104.721 228.2 104.179 227.567 103.796C226.933 103.396 226.067 103.196 224.967 103.196H222.717V101.896H224.867C225.85 101.896 226.642 101.713 227.242 101.346C227.842 100.963 228.142 100.454 228.142 99.821C228.142 99.121 227.8 98.571 227.117 98.171C226.45 97.771 225.575 97.571 224.492 97.571C223.075 97.571 221.675 97.9293 220.292 98.646L219.792 97.271C221.358 96.4543 222.983 96.046 224.667 96.046C225.667 96.046 226.567 96.196 227.367 96.496C228.183 96.7793 228.817 97.1877 229.267 97.721C229.733 98.2543 229.967 98.871 229.967 99.571C229.967 100.238 229.733 100.829 229.267 101.346C228.817 101.863 228.2 102.246 227.417 102.496ZM235.121 96.196H236.896V102.021H245.171V96.196H246.946V109.346H245.171V103.546H236.896V109.346H235.121V96.196ZM264.241 103.321H253.241C253.341 104.688 253.866 105.796 254.816 106.646C255.766 107.479 256.966 107.896 258.416 107.896C259.233 107.896 259.983 107.754 260.666 107.471C261.349 107.171 261.941 106.738 262.441 106.171L263.441 107.321C262.858 108.021 262.124 108.554 261.241 108.921C260.374 109.288 259.416 109.471 258.366 109.471C257.016 109.471 255.816 109.188 254.766 108.621C253.733 108.038 252.924 107.238 252.341 106.221C251.758 105.204 251.466 104.054 251.466 102.771C251.466 101.488 251.741 100.338 252.291 99.321C252.858 98.3043 253.624 97.5127 254.591 96.946C255.574 96.3793 256.674 96.096 257.891 96.096C259.108 96.096 260.199 96.3793 261.166 96.946C262.133 97.5127 262.891 98.3043 263.441 99.321C263.991 100.321 264.266 101.471 264.266 102.771L264.241 103.321ZM257.891 97.621C256.624 97.621 255.558 98.0293 254.691 98.846C253.841 99.646 253.358 100.696 253.241 101.996H262.566C262.449 100.696 261.958 99.646 261.091 98.846C260.241 98.0293 259.174 97.621 257.891 97.621ZM274.445 109.471C273.145 109.471 271.979 109.188 270.945 108.621C269.929 108.054 269.129 107.263 268.545 106.246C267.962 105.213 267.67 104.054 267.67 102.771C267.67 101.488 267.962 100.338 268.545 99.321C269.129 98.3043 269.929 97.5127 270.945 96.946C271.979 96.3793 273.145 96.096 274.445 96.096C275.579 96.096 276.587 96.321 277.47 96.771C278.37 97.2043 279.079 97.846 279.595 98.696L278.27 99.596C277.837 98.946 277.287 98.4627 276.62 98.146C275.954 97.8127 275.229 97.646 274.445 97.646C273.495 97.646 272.637 97.8627 271.87 98.296C271.12 98.7127 270.529 99.3127 270.095 100.096C269.679 100.879 269.47 101.771 269.47 102.771C269.47 103.788 269.679 104.688 270.095 105.471C270.529 106.238 271.12 106.838 271.87 107.271C272.637 107.688 273.495 107.896 274.445 107.896C275.229 107.896 275.954 107.738 276.62 107.421C277.287 107.104 277.837 106.621 278.27 105.971L279.595 106.871C279.079 107.721 278.37 108.371 277.47 108.821C276.57 109.254 275.562 109.471 274.445 109.471ZM288.307 96.096C290.024 96.096 291.341 96.5293 292.257 97.396C293.174 98.246 293.632 99.5127 293.632 101.196V109.346H291.932V107.296C291.532 107.979 290.941 108.513 290.157 108.896C289.391 109.279 288.474 109.471 287.407 109.471C285.941 109.471 284.774 109.121 283.907 108.421C283.041 107.721 282.607 106.796 282.607 105.646C282.607 104.529 283.007 103.629 283.807 102.946C284.624 102.263 285.916 101.921 287.682 101.921H291.857V101.121C291.857 99.9877 291.541 99.1293 290.907 98.546C290.274 97.946 289.349 97.646 288.132 97.646C287.299 97.646 286.499 97.7877 285.732 98.071C284.966 98.3377 284.307 98.7127 283.757 99.196L282.957 97.871C283.624 97.3043 284.424 96.871 285.357 96.571C286.291 96.2543 287.274 96.096 288.307 96.096ZM287.682 108.071C288.682 108.071 289.541 107.846 290.257 107.396C290.974 106.929 291.507 106.263 291.857 105.396V103.246H287.732C285.482 103.246 284.357 104.029 284.357 105.596C284.357 106.363 284.649 106.971 285.232 107.421C285.816 107.854 286.632 108.071 287.682 108.071ZM299.257 106.746C299.641 106.746 299.957 106.879 300.207 107.146C300.457 107.396 300.582 107.713 300.582 108.096C300.582 108.296 300.549 108.513 300.482 108.746C300.432 108.979 300.349 109.246 300.232 109.546L299.182 112.996H297.982L298.832 109.371C298.566 109.288 298.349 109.138 298.182 108.921C298.016 108.688 297.932 108.413 297.932 108.096C297.932 107.713 298.057 107.396 298.307 107.146C298.557 106.879 298.874 106.746 299.257 106.746ZM319.223 96.096C320.457 96.096 321.573 96.3793 322.573 96.946C323.573 97.496 324.357 98.2793 324.923 99.296C325.49 100.313 325.773 101.471 325.773 102.771C325.773 104.088 325.49 105.254 324.923 106.271C324.357 107.288 323.573 108.079 322.573 108.646C321.59 109.196 320.473 109.471 319.223 109.471C318.157 109.471 317.19 109.254 316.323 108.821C315.473 108.371 314.773 107.721 314.223 106.871V114.196H312.448V96.196H314.148V98.796C314.682 97.9293 315.382 97.2627 316.248 96.796C317.132 96.3293 318.123 96.096 319.223 96.096ZM319.098 107.896C320.015 107.896 320.848 107.688 321.598 107.271C322.348 106.838 322.932 106.229 323.348 105.446C323.782 104.663 323.998 103.771 323.998 102.771C323.998 101.771 323.782 100.888 323.348 100.121C322.932 99.3377 322.348 98.7293 321.598 98.296C320.848 97.8627 320.015 97.646 319.098 97.646C318.165 97.646 317.323 97.8627 316.573 98.296C315.84 98.7293 315.257 99.3377 314.823 100.121C314.407 100.888 314.198 101.771 314.198 102.771C314.198 103.771 314.407 104.663 314.823 105.446C315.257 106.229 315.84 106.838 316.573 107.271C317.323 107.688 318.165 107.896 319.098 107.896ZM334.789 96.096C336.505 96.096 337.822 96.5293 338.739 97.396C339.655 98.246 340.114 99.5127 340.114 101.196V109.346H338.414V107.296C338.014 107.979 337.422 108.513 336.639 108.896C335.872 109.279 334.955 109.471 333.889 109.471C332.422 109.471 331.255 109.121 330.389 108.421C329.522 107.721 329.089 106.796 329.089 105.646C329.089 104.529 329.489 103.629 330.289 102.946C331.105 102.263 332.397 101.921 334.164 101.921H338.339V101.121C338.339 99.9877 338.022 99.1293 337.389 98.546C336.755 97.946 335.83 97.646 334.614 97.646C333.78 97.646 332.98 97.7877 332.214 98.071C331.447 98.3377 330.789 98.7127 330.239 99.196L329.439 97.871C330.105 97.3043 330.905 96.871 331.839 96.571C332.772 96.2543 333.755 96.096 334.789 96.096ZM334.164 108.071C335.164 108.071 336.022 107.846 336.739 107.396C337.455 106.929 337.989 106.263 338.339 105.396V103.246H334.214C331.964 103.246 330.839 104.029 330.839 105.596C330.839 106.363 331.13 106.971 331.714 107.421C332.297 107.854 333.114 108.071 334.164 108.071ZM351.72 102.496C352.654 102.713 353.37 103.088 353.87 103.621C354.387 104.154 354.645 104.804 354.645 105.571C354.645 106.338 354.379 107.021 353.845 107.621C353.329 108.221 352.62 108.688 351.72 109.021C350.82 109.338 349.829 109.496 348.745 109.496C347.795 109.496 346.862 109.363 345.945 109.096C345.029 108.813 344.229 108.404 343.545 107.871L344.145 106.546C344.745 106.996 345.445 107.346 346.245 107.596C347.045 107.846 347.854 107.971 348.67 107.971C349.887 107.971 350.879 107.746 351.645 107.296C352.429 106.829 352.82 106.204 352.82 105.421C352.82 104.721 352.504 104.179 351.87 103.796C351.237 103.396 350.37 103.196 349.27 103.196H347.02V101.896H349.17C350.154 101.896 350.945 101.713 351.545 101.346C352.145 100.963 352.445 100.454 352.445 99.821C352.445 99.121 352.104 98.571 351.42 98.171C350.754 97.771 349.879 97.571 348.795 97.571C347.379 97.571 345.979 97.9293 344.595 98.646L344.095 97.271C345.662 96.4543 347.287 96.046 348.97 96.046C349.97 96.046 350.87 96.196 351.67 96.496C352.487 96.7793 353.12 97.1877 353.57 97.721C354.037 98.2543 354.27 98.871 354.27 99.571C354.27 100.238 354.037 100.829 353.57 101.346C353.12 101.863 352.504 102.246 351.72 102.496ZM366.2 96.096C367.433 96.096 368.55 96.3793 369.55 96.946C370.55 97.496 371.333 98.2793 371.9 99.296C372.466 100.313 372.75 101.471 372.75 102.771C372.75 104.088 372.466 105.254 371.9 106.271C371.333 107.288 370.55 108.079 369.55 108.646C368.566 109.196 367.45 109.471 366.2 109.471C365.133 109.471 364.166 109.254 363.3 108.821C362.45 108.371 361.75 107.721 361.2 106.871V114.196H359.425V96.196H361.125V98.796C361.658 97.9293 362.358 97.2627 363.225 96.796C364.108 96.3293 365.1 96.096 366.2 96.096ZM366.075 107.896C366.991 107.896 367.825 107.688 368.575 107.271C369.325 106.838 369.908 106.229 370.325 105.446C370.758 104.663 370.975 103.771 370.975 102.771C370.975 101.771 370.758 100.888 370.325 100.121C369.908 99.3377 369.325 98.7293 368.575 98.296C367.825 97.8627 366.991 97.646 366.075 97.646C365.141 97.646 364.3 97.8627 363.55 98.296C362.816 98.7293 362.233 99.3377 361.8 100.121C361.383 100.888 361.175 101.771 361.175 102.771C361.175 103.771 361.383 104.663 361.8 105.446C362.233 106.229 362.816 106.838 363.55 107.271C364.3 107.688 365.141 107.896 366.075 107.896ZM381.765 96.096C383.482 96.096 384.799 96.5293 385.715 97.396C386.632 98.246 387.09 99.5127 387.09 101.196V109.346H385.39V107.296C384.99 107.979 384.399 108.513 383.615 108.896C382.849 109.279 381.932 109.471 380.865 109.471C379.399 109.471 378.232 109.121 377.365 108.421C376.499 107.721 376.065 106.796 376.065 105.646C376.065 104.529 376.465 103.629 377.265 102.946C378.082 102.263 379.374 101.921 381.14 101.921H385.315V101.121C385.315 99.9877 384.999 99.1293 384.365 98.546C383.732 97.946 382.807 97.646 381.59 97.646C380.757 97.646 379.957 97.7877 379.19 98.071C378.424 98.3377 377.765 98.7127 377.215 99.196L376.415 97.871C377.082 97.3043 377.882 96.871 378.815 96.571C379.749 96.2543 380.732 96.096 381.765 96.096ZM381.14 108.071C382.14 108.071 382.999 107.846 383.715 107.396C384.432 106.929 384.965 106.263 385.315 105.396V103.246H381.19C378.94 103.246 377.815 104.029 377.815 105.596C377.815 106.363 378.107 106.971 378.69 107.421C379.274 107.854 380.09 108.071 381.14 108.071ZM398.94 96.521C400.157 96.521 401.24 96.796 402.19 97.346C403.157 97.8793 403.907 98.6377 404.44 99.621C404.974 100.588 405.24 101.696 405.24 102.946C405.24 104.229 404.957 105.371 404.39 106.371C403.84 107.354 403.065 108.121 402.065 108.671C401.065 109.221 399.915 109.496 398.615 109.496C396.432 109.496 394.74 108.729 393.54 107.196C392.34 105.663 391.74 103.546 391.74 100.846C391.74 98.0293 392.274 95.871 393.34 94.371C394.424 92.871 396.107 91.8543 398.39 91.321L404.29 89.971L404.59 91.596L399.04 92.871C397.157 93.2877 395.774 94.0293 394.89 95.096C394.007 96.146 393.524 97.7043 393.44 99.771C393.974 98.7543 394.715 97.9627 395.665 97.396C396.615 96.8127 397.707 96.521 398.94 96.521ZM398.665 108.021C399.582 108.021 400.399 107.813 401.115 107.396C401.849 106.963 402.415 106.363 402.815 105.596C403.232 104.829 403.44 103.963 403.44 102.996C403.44 102.029 403.24 101.179 402.84 100.446C402.44 99.7127 401.874 99.146 401.14 98.746C400.424 98.3293 399.599 98.121 398.665 98.121C397.732 98.121 396.899 98.3293 396.165 98.746C395.449 99.146 394.882 99.7127 394.465 100.446C394.065 101.179 393.865 102.029 393.865 102.996C393.865 103.963 394.065 104.829 394.465 105.596C394.882 106.363 395.457 106.963 396.19 107.396C396.924 107.813 397.749 108.021 398.665 108.021ZM415.22 109.471C413.953 109.471 412.812 109.188 411.795 108.621C410.778 108.038 409.978 107.238 409.395 106.221C408.812 105.204 408.52 104.054 408.52 102.771C408.52 101.488 408.812 100.338 409.395 99.321C409.978 98.3043 410.778 97.5127 411.795 96.946C412.812 96.3793 413.953 96.096 415.22 96.096C416.487 96.096 417.628 96.3793 418.645 96.946C419.662 97.5127 420.453 98.3043 421.02 99.321C421.603 100.338 421.895 101.488 421.895 102.771C421.895 104.054 421.603 105.204 421.02 106.221C420.453 107.238 419.662 108.038 418.645 108.621C417.628 109.188 416.487 109.471 415.22 109.471ZM415.22 107.896C416.153 107.896 416.987 107.688 417.72 107.271C418.47 106.838 419.053 106.229 419.47 105.446C419.887 104.663 420.095 103.771 420.095 102.771C420.095 101.771 419.887 100.879 419.47 100.096C419.053 99.3127 418.47 98.7127 417.72 98.296C416.987 97.8627 416.153 97.646 415.22 97.646C414.287 97.646 413.445 97.8627 412.695 98.296C411.962 98.7127 411.378 99.3127 410.945 100.096C410.528 100.879 410.32 101.771 410.32 102.771C410.32 103.771 410.528 104.663 410.945 105.446C411.378 106.229 411.962 106.838 412.695 107.271C413.445 107.688 414.287 107.896 415.22 107.896ZM435.2 97.771H430.225V109.346H428.45V97.771H423.475V96.196H435.2V97.771ZM443.292 103.496H440.292V109.346H438.517V96.196H440.292V101.971H443.317L447.942 96.196H449.867L444.692 102.571L450.242 109.346H448.142L443.292 103.496ZM453.793 96.196H455.568V106.646L464.343 96.196H465.918V109.346H464.143V98.896L455.393 109.346H453.793V96.196ZM60.0078 126.196H61.7828V136.646L70.5578 126.196H72.1328V139.346H70.3578V128.896L61.6078 139.346H60.0078V126.196ZM97.0626 126.196V139.346H95.2876V127.771H87.0376V139.346H85.2626V126.196H97.0626ZM109.633 126.096C110.867 126.096 111.983 126.379 112.983 126.946C113.983 127.496 114.767 128.279 115.333 129.296C115.9 130.313 116.183 131.471 116.183 132.771C116.183 134.088 115.9 135.254 115.333 136.271C114.767 137.288 113.983 138.079 112.983 138.646C112 139.196 110.883 139.471 109.633 139.471C108.567 139.471 107.6 139.254 106.733 138.821C105.883 138.371 105.183 137.721 104.633 136.871V144.196H102.858V126.196H104.558V128.796C105.092 127.929 105.792 127.263 106.658 126.796C107.542 126.329 108.533 126.096 109.633 126.096ZM109.508 137.896C110.425 137.896 111.258 137.688 112.008 137.271C112.758 136.838 113.342 136.229 113.758 135.446C114.192 134.663 114.408 133.771 114.408 132.771C114.408 131.771 114.192 130.888 113.758 130.121C113.342 129.338 112.758 128.729 112.008 128.296C111.258 127.863 110.425 127.646 109.508 127.646C108.575 127.646 107.733 127.863 106.983 128.296C106.25 128.729 105.667 129.338 105.233 130.121C104.817 130.888 104.608 131.771 104.608 132.771C104.608 133.771 104.817 134.663 105.233 135.446C105.667 136.229 106.25 136.838 106.983 137.271C107.733 137.688 108.575 137.896 109.508 137.896ZM126.172 139.471C124.905 139.471 123.764 139.188 122.747 138.621C121.73 138.038 120.93 137.238 120.347 136.221C119.764 135.204 119.472 134.054 119.472 132.771C119.472 131.488 119.764 130.338 120.347 129.321C120.93 128.304 121.73 127.513 122.747 126.946C123.764 126.379 124.905 126.096 126.172 126.096C127.439 126.096 128.58 126.379 129.597 126.946C130.614 127.513 131.405 128.304 131.972 129.321C132.555 130.338 132.847 131.488 132.847 132.771C132.847 134.054 132.555 135.204 131.972 136.221C131.405 137.238 130.614 138.038 129.597 138.621C128.58 139.188 127.439 139.471 126.172 139.471ZM126.172 137.896C127.105 137.896 127.939 137.688 128.672 137.271C129.422 136.838 130.005 136.229 130.422 135.446C130.839 134.663 131.047 133.771 131.047 132.771C131.047 131.771 130.839 130.879 130.422 130.096C130.005 129.313 129.422 128.713 128.672 128.296C127.939 127.863 127.105 127.646 126.172 127.646C125.239 127.646 124.397 127.863 123.647 128.296C122.914 128.713 122.33 129.313 121.897 130.096C121.48 130.879 121.272 131.771 121.272 132.771C121.272 133.771 121.48 134.663 121.897 135.446C122.33 136.229 122.914 136.838 123.647 137.271C124.397 137.688 125.239 137.896 126.172 137.896ZM150.142 137.796V142.521H148.467V139.346H136.692V142.521H135.017V137.796H135.767C136.651 137.746 137.251 137.096 137.567 135.846C137.884 134.596 138.101 132.846 138.217 130.596L138.392 126.196H148.092V137.796H150.142ZM139.842 130.696C139.759 132.563 139.601 134.104 139.367 135.321C139.134 136.521 138.717 137.346 138.117 137.796H146.317V127.771H139.992L139.842 130.696ZM158.877 126.096C160.593 126.096 161.91 126.529 162.827 127.396C163.743 128.246 164.202 129.513 164.202 131.196V139.346H162.502V137.296C162.102 137.979 161.51 138.513 160.727 138.896C159.96 139.279 159.043 139.471 157.977 139.471C156.51 139.471 155.343 139.121 154.477 138.421C153.61 137.721 153.177 136.796 153.177 135.646C153.177 134.529 153.577 133.629 154.377 132.946C155.193 132.263 156.485 131.921 158.252 131.921H162.427V131.121C162.427 129.988 162.11 129.129 161.477 128.546C160.843 127.946 159.918 127.646 158.702 127.646C157.868 127.646 157.068 127.788 156.302 128.071C155.535 128.338 154.877 128.713 154.327 129.196L153.527 127.871C154.193 127.304 154.993 126.871 155.927 126.571C156.86 126.254 157.843 126.096 158.877 126.096ZM158.252 138.071C159.252 138.071 160.11 137.846 160.827 137.396C161.543 136.929 162.077 136.263 162.427 135.396V133.246H158.302C156.052 133.246 154.927 134.029 154.927 135.596C154.927 136.363 155.218 136.971 155.802 137.421C156.385 137.854 157.202 138.071 158.252 138.071ZM181.202 133.496H178.352V139.346H176.577V133.496H173.727L169.702 139.346H167.577L172.302 132.571L167.952 126.196H169.877L173.727 131.971H176.577V126.196H178.352V131.971H181.202L185.077 126.196H187.002L182.652 132.596L187.377 139.346H185.252L181.202 133.496Z" fill="white"/>
<path fill-rule="evenodd" clip-rule="evenodd" d="M467.674 481.892C469.18 484.628 469.354 488.515 468.964 492.205C469.074 492.168 469.184 492.13 469.295 492.093C471.269 491.429 474.214 491.622 476.929 493.071C476.756 488.578 477.125 485.529 478.036 483.925C479.95 480.551 481.756 480.219 484.21 479.866C486.665 479.514 491.113 481.839 490.712 487.799C490.402 492.419 485.775 497.649 482.799 500.27C483.126 501.251 483.375 502.33 483.527 503.511C484.591 511.734 477.83 522.569 473.465 527.916C475.02 529.151 476.442 530.788 477.597 532.898L477.601 532.886C477.658 532.738 477.714 532.602 477.771 532.48C479.393 528.947 481.164 528.453 483.579 527.881C485.994 527.309 495.6 525.568 495.703 531.541C495.806 537.461 481.563 555.288 479.501 556.826C478.051 564.996 475.322 572.198 473.446 574.283C471.182 576.799 466.119 576.799 458.257 574.283C451.32 557.061 448.231 545.52 448.99 539.659C447.559 537.739 438.332 517.776 438.814 511.99C439.301 506.144 446.247 509.543 447.985 510.53C449.722 511.516 450.992 512.313 451.942 516.067C452.432 518.002 452.752 522.737 452.903 530.272C454.636 528.358 456.801 527.173 459.31 525.85C460.333 525.311 461.619 524.938 463.049 524.793C459.47 512.98 458.373 505.082 459.758 501.097C459.813 500.939 459.869 500.784 459.925 500.633C454.793 494.165 452.174 489.497 452.064 486.629C451.887 481.991 453.545 480.439 455.862 478.43C458.178 476.42 464.274 475.715 467.674 481.892Z" fill="#5BA9AA"/>
<path d="M445.35 571.055H487.3L484.104 616.033H448.546L445.35 571.055Z" fill="#EFE4E3"/>
<path d="M444.627 583.496H488.023V569.461H444.627V583.496Z" fill="#DCD3D2"/>
<path fill-rule="evenodd" clip-rule="evenodd" d="M453.316 561.741C460.118 563.792 466.851 563.78 477.774 562.375L478.202 562.32L478.237 562.608C467.169 564.053 460.351 564.11 453.504 562.099L453.237 562.02L453.316 561.741ZM450.784 552.806C453.505 552.954 456.448 553.096 456.586 553.101C456.614 553.103 456.614 553.103 456.633 553.105C456.64 553.086 456.64 553.086 456.777 553.246C456.639 553.44 456.639 553.44 456.632 553.416C456.614 553.417 456.614 553.417 456.593 553.419C456.557 553.42 456.337 553.428 456.294 553.43C455.914 553.444 455.607 553.466 455.355 553.503C455.232 553.521 455.13 553.542 455.056 553.565L455.005 553.583L454.997 553.586L455.006 553.592C455.104 553.651 455.356 553.762 455.76 553.891L455.864 553.923C457.469 554.413 461.005 555.123 466.841 556.088C469.132 556.466 470.986 556.587 475.176 556.72C477.201 556.785 478.141 556.822 479.249 556.893L479.372 556.901L479.354 557.208C478.194 557.133 477.263 557.095 475.167 557.028C470.964 556.894 469.101 556.773 466.794 556.392C460.945 555.425 457.4 554.714 455.779 554.218C454.696 553.887 454.42 553.531 454.841 553.325C453.8 553.273 452.416 553.203 451.059 553.129L450.769 553.113L450.784 552.806ZM454.97 553.567L454.969 553.589C454.972 553.593 454.977 553.593 454.987 553.59L454.997 553.586L454.985 553.578C454.979 553.574 454.974 553.57 454.97 553.567ZM479.317 530.093L479.363 529.757C480.549 529.927 481.55 529.995 483.842 530.098C488.464 530.305 490.386 530.581 492.301 531.625C492.535 531.753 492.776 531.845 493.203 531.983C493.265 532.003 493.265 532.003 493.327 532.022C494.321 532.341 494.731 532.558 495.039 533.081C495.24 533.421 495.005 533.689 494.552 533.865C494.245 533.984 493.818 534.067 493.495 534.084C490.151 534.26 490.045 534.912 492.769 538.77C492.991 539.085 492.902 539.624 492.627 539.93C492.019 540.605 491.161 540.596 490.025 540.036C489.211 539.636 488.71 539.284 486.744 537.812C486.352 537.519 486.069 537.31 485.79 537.109C483.606 535.54 482.177 534.941 481.062 535.374C481.124 535.427 481.213 535.493 481.33 535.573C481.481 535.678 482.338 536.234 482.583 536.401C483.004 536.688 483.339 536.939 483.61 537.181C483.989 537.519 484.227 537.825 484.305 538.116C484.403 538.484 484.238 538.799 483.824 539.021C483.063 539.429 483.123 540.136 483.896 541.104C484.557 541.932 485.704 542.852 486.756 543.45C487.75 544.015 488.438 544.831 488.188 545.577C487.58 547.389 485.703 548.528 483.679 547.561C483.183 547.324 482.653 546.585 481.809 545.115C481.729 544.976 481.647 544.83 481.542 544.644C480.687 543.133 480.473 542.771 480.134 542.327C479.926 542.055 479.753 541.89 479.625 541.839C479.531 541.801 479.473 541.828 479.4 541.972C477.841 545.028 481.442 551.198 484.491 551.868L484.592 551.888L484.535 552.223C481.26 551.633 477.42 545.122 479.109 541.813C479.256 541.524 479.485 541.418 479.745 541.522C479.942 541.602 480.151 541.801 480.392 542.116C480.745 542.579 480.96 542.942 481.826 544.473C481.931 544.658 482.013 544.803 482.093 544.942C482.893 546.336 483.411 547.059 483.817 547.253C485.645 548.125 487.327 547.105 487.877 545.466C488.053 544.941 487.461 544.239 486.598 543.748C485.511 543.131 484.333 542.184 483.642 541.321C482.755 540.21 482.674 539.254 483.672 538.719C483.957 538.567 484.041 538.407 483.987 538.206C483.931 537.996 483.729 537.736 483.395 537.438C483.137 537.208 482.812 536.964 482.401 536.684C482.161 536.521 481.303 535.964 481.147 535.856C480.964 535.729 480.841 535.634 480.765 535.555C480.624 535.408 480.579 535.225 480.78 535.128C482.066 534.51 483.603 535.124 485.978 536.83C486.259 537.033 486.543 537.242 486.937 537.537C490.41 540.138 491.506 540.677 492.385 539.699C492.562 539.503 492.622 539.139 492.503 538.97C489.648 534.927 489.809 533.937 493.479 533.745C493.77 533.729 494.163 533.653 494.436 533.547C494.722 533.436 494.806 533.34 494.758 533.258C494.507 532.832 494.146 532.641 493.229 532.347C493.167 532.327 493.167 532.327 493.105 532.307C492.66 532.163 492.404 532.066 492.147 531.926C490.292 530.914 488.397 530.642 483.828 530.437C481.602 530.338 480.586 530.27 479.437 530.11L479.317 530.093L479.363 529.757L479.317 530.093ZM462.185 548.622C462.513 548.682 462.668 548.71 462.84 548.741C468.317 549.726 471.357 550.063 475.292 549.888L475.556 549.876L475.573 550.252C471.476 550.456 468.4 550.124 462.777 549.112C462.605 549.081 462.45 549.053 462.122 548.993C456.45 547.969 453.618 547.622 449.73 547.697L449.491 547.702L449.482 547.326C453.526 547.231 456.375 547.574 462.185 548.622ZM477.483 532.694L477.94 532.965C475.839 536.747 472.837 538.959 468.94 539.888C465.741 540.65 462.093 540.554 457.327 539.789L456.977 539.733C455.7 539.522 454.424 539.282 452.449 538.89C452.424 538.885 451.25 538.651 450.915 538.585C450.408 538.485 449.981 538.402 449.579 538.325L449.408 538.292L449.504 537.756C449.957 537.843 450.434 537.936 451.014 538.05C451.35 538.117 452.524 538.35 452.548 538.355C454.697 538.781 456.015 539.028 457.408 539.251C467.598 540.886 473.746 539.421 477.483 532.694ZM454.036 528.87C454.698 529.439 455.365 529.94 456.041 530.376C458.752 532.125 461.574 532.83 464.881 532.738C467.376 532.669 468.887 532.394 474.5 531.156C475.115 531.02 475.612 530.913 476.088 530.812L476.266 530.775L476.389 531.4C475.86 531.511 475.32 531.628 474.629 531.78C468.973 533.027 467.446 533.305 464.898 533.376C461.474 533.471 458.533 532.736 455.713 530.917C455.114 530.53 454.521 530.095 453.933 529.607L453.64 529.36L454.036 528.87ZM438.63 510.927L438.73 511.325C438.771 511.314 438.795 511.255 438.797 511.233L438.797 511.228C438.817 511.281 438.88 511.366 438.97 511.457C439.164 511.653 439.42 511.817 439.53 511.825C441.079 511.941 442.457 511.935 445.052 511.845C445.211 511.84 445.211 511.84 445.371 511.834C448.714 511.718 450.199 511.719 452.055 511.917C452.294 511.943 452.387 512.147 452.316 512.367C452.275 512.493 452.18 512.64 452.048 512.798C451.791 513.103 451.444 513.389 451.211 513.466C451.365 513.415 447.192 514.083 445.265 514.607C442.06 515.48 439.998 516.698 439.534 518.326C439.415 518.744 439.653 519.075 440.225 519.346C440.687 519.566 441.318 519.714 441.933 519.784C442.536 519.852 443.169 519.823 443.924 519.71C444.313 519.652 444.624 519.593 445.331 519.45C446.808 519.151 447.471 519.055 448.306 519.074C448.654 519.082 448.95 519.057 449.943 518.952C450.144 518.931 450.281 518.917 450.42 518.903C451.47 518.802 452.139 518.794 452.643 518.922C453.351 519.102 453.644 519.579 453.39 520.321C452.873 521.828 451.952 522.288 449.575 522.748C449.495 522.764 449.495 522.764 449.414 522.78C448.186 523.018 447.574 523.201 446.996 523.569C446.752 523.724 446.439 523.896 446.005 524.119C445.775 524.236 444.928 524.659 444.801 524.723C444.054 525.101 443.542 525.383 443.123 525.658C442.657 525.964 442.357 526.236 442.237 526.466C442.128 526.675 442.172 526.835 442.425 527.02C445.122 528.995 448.413 528.877 452.309 527.72C452.299 527.723 452.776 527.579 452.869 527.553C453.1 527.488 453.155 527.477 453.243 527.516C453.344 527.561 453.393 527.677 453.358 527.784C453.343 527.828 453.321 527.858 453.291 527.889C453.261 527.92 453.218 527.954 453.155 527.999C453.052 528.073 452.891 528.178 452.612 528.355C452.466 528.447 451.778 528.88 451.618 528.982C451.112 529.301 450.638 529.604 450.118 529.938C448.71 530.845 447.171 531.858 445.403 533.052L445.185 532.708C446.956 531.512 448.496 530.497 449.907 529.589C450.428 529.254 450.903 528.951 451.41 528.631C451.51 528.568 451.814 528.376 452.064 528.218C448.213 529.31 444.938 529.365 442.194 527.355C441.783 527.054 441.678 526.67 441.886 526.271C442.047 525.963 442.39 525.652 442.909 525.311C443.343 525.025 443.866 524.738 444.626 524.354C444.754 524.289 445.6 523.866 445.828 523.75C446.252 523.533 446.555 523.366 446.787 523.218C447.42 522.815 448.065 522.623 449.34 522.375C449.421 522.359 449.421 522.359 449.502 522.344C451.746 521.91 452.562 521.501 453.014 520.183C453.185 519.685 453.038 519.446 452.548 519.322C452.102 519.208 451.463 519.216 450.458 519.313C450.32 519.327 450.183 519.341 449.983 519.362C448.969 519.469 448.669 519.494 448.297 519.486C447.5 519.467 446.856 519.561 445.408 519.854C444.694 519.998 444.379 520.058 443.981 520.117C443.195 520.235 442.53 520.265 441.89 520.193C441.236 520.119 440.566 519.961 440.058 519.72C439.329 519.374 438.964 518.868 439.152 518.21C439.669 516.393 441.83 515.117 445.163 514.209C447.121 513.677 451.28 513.011 451.088 513.075C451.238 513.025 451.534 512.781 451.746 512.528C451.813 512.448 451.866 512.374 451.901 512.314C450.12 512.131 448.64 512.133 445.384 512.246C445.225 512.251 445.225 512.251 445.065 512.257C442.457 512.346 441.069 512.353 439.501 512.236C439.273 512.219 438.946 512.009 438.691 511.75C438.564 511.622 438.471 511.495 438.426 511.38C438.349 511.182 438.417 510.984 438.63 510.927ZM471.988 519.727C473.565 520.195 475.104 521.066 476.922 522.544L477.142 522.724L476.92 523.009C475.039 521.45 473.481 520.55 471.89 520.078C470.13 519.556 469.028 519.529 464.648 519.72C463.367 519.776 462.448 519.807 461.452 519.822L461.237 519.825L461.233 519.46C462.31 519.446 463.263 519.415 464.633 519.355C469.056 519.161 470.176 519.189 471.988 519.727ZM460.612 514.075C463.969 515.727 466.737 515.917 473.22 515.499C476.997 515.255 478.771 515.218 480.895 515.454L481.051 515.472L480.998 515.96C478.839 515.708 477.091 515.741 473.249 515.989C466.791 516.406 463.952 516.225 460.572 514.598L460.408 514.518L460.612 514.075ZM474.571 491.153C475.128 492.863 475.431 494.719 475.633 497.212C475.685 497.859 475.716 498.325 475.794 499.554C476.058 503.722 476.301 505.491 477.051 507.309C477.992 509.59 479.634 511.04 482.334 511.723L482.533 511.771L482.397 512.393C479.384 511.687 477.524 510.084 476.483 507.559C475.695 505.65 475.446 503.84 475.177 499.596C475.1 498.371 475.069 497.907 475.017 497.265C474.846 495.156 474.603 493.52 474.194 492.05L474.192 492.109C473.964 498.806 473.313 502.09 471.502 503.967C469.405 506.139 465.749 506.036 459.599 503.557L459.345 503.454L459.469 503.133C465.659 505.666 469.262 505.797 471.265 503.723C473.019 501.906 473.652 498.604 473.867 491.795L474.124 491.804L474.056 491.579L473.985 491.356L474.571 491.153ZM475.802 491.795C475.943 492.568 476.068 493.34 476.2 494.235C476.27 494.704 476.482 496.202 476.511 496.406C477.357 502.226 478.54 503.846 483.647 504.422L483.821 504.441L483.777 504.885C478.295 504.302 476.965 502.538 476.084 496.473C476.054 496.267 475.842 494.77 475.773 494.302C475.658 493.523 475.548 492.839 475.429 492.166L475.377 491.878L475.802 491.795ZM469.211 490.483C469.292 497.625 469.102 500.068 467.921 502.027C466.428 504.504 463.451 504.679 458.26 502.469L458.039 502.374L458.279 501.786C463.361 503.989 466.089 503.859 467.396 501.69C468.469 499.91 468.667 497.535 468.596 490.771L468.593 490.491L469.211 490.483ZM469.274 487.097L469.551 487.299C468.952 488.178 466.327 492.035 465.824 492.769C464.915 494.093 464.45 494.746 464.176 495.074C463.825 495.495 463.503 495.514 463.56 494.997C463.574 494.868 463.746 494.018 463.787 493.753C464 492.377 463.792 491.561 462.924 491.371C461.674 491.097 459.179 492.118 455.194 494.76L454.979 494.903L454.795 494.609C458.979 491.812 461.603 490.723 462.995 491.028C464.106 491.272 464.36 492.269 464.122 493.808C464.09 494.016 463.988 494.533 463.932 494.83C464.199 494.508 464.661 493.859 465.547 492.566C466.05 491.834 468.674 487.976 469.274 487.097ZM478.23 484.324C481.007 484.631 483.211 484.993 488.158 485.895C490.548 486.331 491.654 486.528 492.968 486.745L493.1 486.766L493.032 487.207C491.655 486.981 490.555 486.786 488.083 486.335C483.146 485.435 480.948 485.074 478.184 484.768C477.303 484.67 476.805 484.7 476.782 484.742C476.797 484.714 477.039 484.945 477.523 485.245C478.051 485.572 478.816 485.981 479.945 486.546C480.537 486.843 482.807 487.959 483.193 488.15C483.67 488.387 484.094 488.6 484.494 488.804C487.3 490.237 488.95 491.252 489.565 492.045C489.996 492.602 489.915 493.114 489.286 493.403C488.716 493.665 487.65 493.778 486.023 493.746C484.143 493.708 482.662 493.471 479.348 492.786C477.767 492.458 477.029 492.314 476.162 492.173L476.053 492.156L476.119 491.714C477.044 491.862 477.78 492.006 479.433 492.348C482.722 493.028 484.186 493.262 486.031 493.299C487.598 493.331 488.615 493.222 489.11 492.995C489.464 492.832 489.491 492.665 489.227 492.324C488.67 491.605 487.038 490.601 484.302 489.204C483.904 489.001 483.481 488.789 483.005 488.552C482.621 488.362 480.35 487.245 479.756 486.948C478.616 486.377 477.842 485.964 477.301 485.628C476.539 485.156 476.224 484.855 476.405 484.523C476.564 484.232 477.108 484.2 478.23 484.324ZM468.36 482.698L468.505 483.015C468.492 483.021 465.215 484.934 463.629 485.756C462.321 486.434 461.082 487.006 459.907 487.46C456.231 488.88 453.503 489.025 452.044 487.456L451.964 487.367L452.217 487.134C453.528 488.65 456.165 488.532 459.789 487.132C460.95 486.683 462.179 486.115 463.477 485.443C465.051 484.628 468.333 482.711 468.36 482.698ZM465.65 479.688L465.984 479.746C465.384 483.408 462.721 484.435 458.003 483.952C457.321 483.882 456.659 483.792 455.659 483.641C453.695 483.344 453.39 483.301 452.738 483.252L452.679 483.248L452.703 482.899C453.41 482.951 453.674 482.987 455.708 483.295C456.703 483.445 457.361 483.534 458.037 483.603C462.6 484.071 465.089 483.111 465.65 479.688Z" fill="black" fill-opacity="0.25"/>
<path d="M453.12 565.985L455.8 566.329L455.777 567.368L453.097 567.024L453.12 565.985ZM478.032 562.306L479.788 563.216L479.639 563.792L477.884 562.882L478.032 562.306ZM452.669 561.12L454.538 561.516L454.5 562.553L452.631 562.156L452.669 561.12ZM479.803 559.724L479.86 560.634L477.814 561.211L477.757 560.301L479.803 559.724ZM477.209 533.026L477.634 533.105C477.452 534.143 477.244 535.174 476.914 536.702L476.882 536.851C476.85 537.002 476.814 537.164 476.761 537.409C475.565 542.931 475.213 545.268 475.409 547.993C475.66 551.49 477.059 554.181 479.98 556.243L480.164 556.371L479.926 556.743C476.763 554.586 475.243 551.73 474.977 548.026C474.778 545.24 475.133 542.879 476.339 537.312C476.392 537.067 476.427 536.904 476.46 536.754L476.492 536.605C476.82 535.082 477.028 534.056 477.209 533.026ZM458.911 551.512L460.704 553.027L460.43 553.372L458.637 551.857L458.911 551.512ZM448.629 549.299L450.361 550.256L450.194 550.785L448.463 549.828L448.629 549.299ZM469.507 545.096L469.952 546.527L468.956 546.588L468.512 545.157L469.507 545.096ZM453.587 529.405L453.954 529.642C451.084 534.362 449.638 537.729 448.892 541.645L448.842 541.913L448.417 541.831C449.159 537.737 450.625 534.275 453.587 529.405ZM492.079 538.633L493.526 539.492L493.372 540.12L491.925 539.261L492.079 538.633ZM466.422 536.964L467.28 538.444L466.699 538.614L465.84 537.134L466.422 536.964ZM492.878 526.846L493.415 526.967L492.513 529.517L491.975 529.396L492.878 526.846ZM482.703 526.611L483.348 528.634L482.553 528.712L481.908 526.689L482.703 526.611ZM457.478 525.528L458.966 527.417L458.63 527.699L457.143 525.809L457.478 525.528ZM453.078 522.643L453.448 522.874L452.229 524.953L451.859 524.721L453.078 522.643ZM460.94 522.601L463.298 523.143L463.253 524.088L460.895 523.546L460.94 522.601ZM440.583 518.234L440.624 519.186L438.097 519.72L438.056 518.767L440.583 518.234ZM480.493 518.333L480.52 519.371L478.505 519.672L478.479 518.633L480.493 518.333ZM452.016 514.791L452.386 515.022L451.07 517.263L450.7 517.031L452.016 514.791ZM482.794 514.334L482.811 515.373L479.993 515.646L479.975 514.607L482.794 514.334ZM459.385 513.851L460.68 514.597L460.535 515.337L459.24 514.591L459.385 513.851ZM465.427 510.353L467.51 512.616L467.196 512.924L465.113 510.66L465.427 510.353ZM471.802 510.91L472.223 512.662L471.22 512.709L470.8 510.958L471.802 510.91ZM446.61 509.281L447.475 511.044L446.901 511.195L446.035 509.432L446.61 509.281ZM438.271 508.768L440.685 510.77L440.414 511.118L438 509.116L438.271 508.768ZM474.573 508.359L475.265 510.823L474.517 510.896L473.825 508.432L474.573 508.359ZM457.745 504.899L459.156 506.474L458.838 506.777L457.427 505.202L457.745 504.899ZM469.23 494.217L469.652 494.316C469.17 496.511 469.067 496.971 468.858 497.83C468.014 501.296 467.26 502.915 465.987 503.453C464.587 504.044 462.661 503.154 459.686 500.566L459.517 500.417L459.797 500.077C462.752 502.677 464.603 503.555 465.823 503.039C466.915 502.578 467.63 501.043 468.438 497.721L468.474 497.574C468.66 496.807 468.777 496.279 469.23 494.217ZM477.058 492.73C477.257 493.693 477.421 494.627 477.587 495.698C477.65 496.111 477.886 497.711 477.944 498.08C478.527 501.763 479.154 502.079 482.924 499.771L483.06 499.688L483.282 500.071C479.134 502.627 478.157 502.198 477.517 498.152C477.458 497.78 477.223 496.179 477.159 495.769C477.015 494.838 476.873 494.012 476.708 493.18L476.635 492.823L477.058 492.73ZM455.68 497.167L457.698 497.414L457.676 498.453L455.658 498.206L455.68 497.167ZM486.091 496.157L487.72 496.418L487.691 497.456L486.062 497.195L486.091 496.157Z" fill="#273137"/>
<defs>
<clipPath id="clip0">
<rect width="251" height="180" fill="white" transform="translate(40 433)"/>
</clipPath>
</defs>
</svg>
